<?xml version="1.0" encoding="UTF-8"?>
<svg id="Camada_1" data-name="Camada 1" xmlns="http://www.w3.org/2000/svg" viewBox="0 0 2315.78 2382.24">
  <defs>
    <style>
      .cls-1 {
        fill: #f8eeab;
      }

      .cls-2 {
        fill: #070606;
      }

      .cls-3 {
        fill: #fdbf03;
      }

      .cls-4 {
        fill: #f9f9f7;
      }

      .cls-5 {
        fill: #050c62;
      }
    </style>
  </defs>
  <g>
    <path class="cls-2" d="M541.21,1991.49c-132.76-87.43-212.78-242.02-222.34-399.85l354.96,103.37c-9.78-15.46-23.27-28.39-33.21-43.82-28.09-43.65-41.49-95.49-42.86-147.33,84.13-2.43,203.69,11.66,270.57-50.28,2.09-1.93,5.43-2.07,4.44-6.26-24.42.85-50.68,10.5-75.09,9.87-24.24-.62-54.68-14.16-80.22-17.43-19.61-2.51-72.26,1.05-84.52-7.15-5.55-3.71-7.57-13.02-11.11-14.25-8.38-2.9-40.18.51-52.31-.35-30.96-2.19-74.75-10.4-92.5-38.13-31.76-1.79-147.94-6.46-167.98-29.06-3.2-3.6-5.18-13.84-6.08-14.41-1.9-1.2-37-5.79-44.21-7.47-21.56-5.02-77.38-16.92-89.03-35.8-2.5-4.06-2.66-10.45-3.36-11.27-1.25-1.46-30.63-8.74-36.67-11.13-13.74-5.43-46.81-20.19-51.26-34.65-1.75-5.7.68-11.46-.32-13.11-1.39-2.3-37.35-22.86-44.94-29.31-10.61-9.01-53.33-51.99-21.74-54.44,168.27,54.68,344.85,81.24,521.96,85.69l-33.74-17.92c-147.83-91.47-218.36-293.5-150.54-455.99,78.83-188.86,312.11-268.27,489.55-163.91-43.31-111.98-31.69-232.82,37.26-331.32,53.71-76.73,136.6-121.83,205.58-182.56,26.17-23.04,49.98-49.04,75.06-73.23,25.58,22.57,47.49,48.71,73.12,71.28,69.85,61.49,152.64,102.63,207.53,180.61,68.67,97.56,82.87,221.9,39.2,333.26,184.34-101.78,422.11-21.94,495,177.99,58.16,159.54-11.18,339.4-144.86,436.43,3.58.92,6.87,1.76,10.63,2.07,108.19,8.83,248.27-5.98,354.12-30.3,34.62-7.96,78.93-26.65,110.65-31.72,5.8-.93,11.49-2.83,13.31,3.33,5.17,17.45-31.33,49.86-44.19,59.4-5.51,4.09-33.04,18.8-34.01,20.53-.7,1.25,2.26,9.3-3.21,18.31-15.12,24.89-81.14,35.99-85.13,40.67-1.07,1.25-.19,6.32-1.81,8.87-21.64,33.92-125.59,56.54-165.01,61.28-11.6,25.14-46.15,29.68-71.08,34.25-31.41,5.76-64.18,10.71-95.63,15.55-40.06,6.16-80.44,13.28-118.05-6.83-13.36,10.33-29.64,24.95-47.11,26.96-8.14.94-19.52-1.64-26.87.43-2.96.83-12.08,9.11-17.61,11.65-16.45,7.54-52.27,14.35-70.51,15.31-25.23,1.32-51.51-7.68-75.16,3.85,65.34,65.49,172.98,47.16,257.46,50.68-1.01,70.63-24.87,136.84-72.18,189.18l341.32-103.35c-9.29,155.86-85.65,310.68-218.44,395.94.08-7.13-.14-14.32,0-21.46,113.92-79.53,183.66-211.29,196.98-349.13l-325.71,97.54c8.12,9.31,25.85,9.8,35.11,13.63.19.08-.8,2.86,1.47,3.8,22.23,9.19,72.27,23.27,88.25,37.16-18.63,10.36-37.74,20.85-57.21,29.59-226.53,101.66-494.54,124.98-741.21,94.94-147.33-17.94-291.57-55.7-422.57-124.53.36-.88-.96-3.25,1.37-3.91,32.48-9.57,62.98-24.4,94.2-37.05,9.84-3.99,22.59-6.58,32.34-11.51,2.09-1.05,3.66.98,2.78-4.08l-331.57-93.62c11.33,139.47,85.24,272.15,198.94,353.02.12,7.13-.07,14.32,0,21.46ZM1335.05,1236.66c11.78-6.34,22.61-14.2,34.77-19.83-.03-61,19.31-123.84,70.73-160.41,68.42-48.66,172.77-36.44,205.55,47.65,11.68,29.94,9.63,58.3,6.86,89.69,40.49.2,82.29,9.15,120.3-7.48,92.49-40.46,163.03-155.92,177.79-253.26,47.94-316.16-338.22-476.28-541.19-244.59-4.71-3.85-27.7-19.45-25.2-25.18,95.93-107.26,106.68-271.76,22.98-389.57-49.12-69.13-124.85-109-188.59-162.49-21.75-18.25-42.09-38.33-62.45-58.09-22.86,19.15-42.73,41.65-65.34,61.09-59,50.71-128.13,88.48-176.33,151.35-82.24,107.28-86.12,246.61-13.71,360.47,4.29,6.74,28.5,36.98,28.22,40.03-1.92,5.3-22.54,23.52-26.16,22.42-142.68-171.88-424-135.34-516.5,69.03-86.99,192.21,50.65,459.29,273.41,453.82-3.21-37.7-5.63-75.65,11.36-110.54,37.65-77.34,140.6-90.69,206.91-42.41,50.7,36.91,68.71,100.37,69.34,160.82,10.04,4.05,20.26,7.64,30.3,11.63,23.28,9.25,49.17,20.68,73.11,27.34,45.01,12.52,60.36-.65,103.33-2.06,78.1-2.56,102.99,22.26,180.49-19.43ZM1613.75,1191.57c36.77-185.46-213.48-151.87-203.58,6.11,66.23-18.78,135.9-9.4,203.58-6.11ZM907.9,1205.46c7.07-85.62-72.16-165.61-158.5-130.22-53.08,21.75-59.98,79.56-52.14,130.23,69.63-14.8,140.86-11.26,210.65,0ZM1413.07,1260.07h49.74c13.2,0,26.18-9.74,35.2-11.61,3.46-.72,18.9.48,20.4-2.06.22-.36-3.05-6.51-1.97-7.76,3.3-3.82,88.83-9.47,100.38-9.84,92.06-3,186.65,9.21,279.09,7.97,91.9-10.32,191.4-.71,282.47-12.05,41.57-5.18,92.62-24.83,112.41-64.09-100.76,29.92-203.46,50.87-309.07,54.67-116.34,4.18-250.35.59-366.73-5.96-67.78-3.82-129.9-20.78-198.05.96-61.01,19.47-96.36,73.17-153.04,98.57-3.13-14.86,15.73-21.23,22.41-31.21-10.58,2.21-21.37,2.47-32.15,1.9-28.71-1.52-60.95-9.86-89.75-9.88-25.06-.02-51.88,8.87-76.1,9.87-81.85,3.38-135.1-48.22-209.29-63.71-110.8-23.14-194.98,14.91-301.63,20.92-51.71,2.91-113.8-.54-165.83-4.01-130.53-8.71-259.79-37.22-385.24-72.12,21.81,45.48,86.41,62.85,132.6,73.15,136.72,30.47,273.7,21.95,412.51,26.34,25.25.8,48.44,4.99,74.12,4.03,65.95-2.47,131.7-28.19,196.56-3.6,6.65,2.52,28.31,16.35,29.99,16.66,7.49,1.42,16.33-10.53,20.93-9.22,6.09,1.82,6.29,20.43,7.16,21.26.74.7,9.35-.7,13.55,1.09,4.47,1.9,5.32,10.1,10.73,10.76,4.28.52,12.1-3.64,17.64-3.97,20.21-1.22,26.01,16.84,29.21,17.57,7.26,1.66,6.76-19.82,11.76-21.4,8.4-2.65,10.52,16.27,10.66,21.41,2.62,2.69,44.17-20.64,49.57-19.38,1.64.38,3.3,2.91,3.22,4.78.26,2.61-.37,3.96-2.08,5.84-4.15,4.59-32.58,14.45-41,19.45-17.67,10.5-26.78,22.4-18.46,43.88,6.06,15.65,21.71,15.9,25.27,21.54,3.67,5.81,2.68,22.1,2.98,29.2,3.2,3.69,29.45-29.46,44.81-22.39,15.55,7.16-12.32,11.89-14.35,12.88-9.23,4.51-31.35,38.74-43.89,18.06l-7.02-22.16c-13.37,3.75-9.37,17.96-12.66,20.51-1.69,1.31-10.9,2.53-15.03,4.47-19.07,8.96-36.61,23.74-58.86,24.03-8.26,26.11-25.63,47.33-37.66,71.56-19.7-1.99-27.24,8.39-36.36,23.14-4.16,6.72-14.52,24.88-11.13,31.78,1.35,2.21,3.1,3.6,5.78,3.79,5.84.42,30.91-15.69,39.57-18.91,57.31-21.31,122.85-9,181.13-2.63,22.4,2.45,4.88-7.61,13.55-9.49,17.77,14.62,30-15,39.2-15.41,9.99-.44-.08,15.11-3.22,18.3-1,3.1,37.94-9.2,40.85-9.86,30.95-7.08,50.77-13.4,80.54-22.84,4.79-1.52,19.76-3.19,20.66-3.73.78-.47,2.46-7.94,6.01-10.57,5.63-4.16,10.24-1.48,14.95-4.55,2.61-1.7,33.1-34.54,35.59-38.53s18.98-33.21,19.43-35.18c2.52-10.82-2.12-21.41-.71-31.91l16.87-5.06-2.17-14.23-13.56,1.87c-2.05-12.16,16.24-17.9,2.6-29.07-12.98-.04-49.33,33.42-59.29,26.29-13.89-9.94,17.11-11.12,19.18-15.19,1.93-3.79-.71-17.95.44-19.08,5.2-2.08,16.99,2.68,20.19,1.74,5.45-1.6,3.26-16.24,18.77-9.58l3.85-16.72,27.42,1.17,1.81-16.71,25.5,1.11-.02-17.57,17.55,1.96c-3.48-18.64,17.28-9.83,29.28-11.71,2.72-9.38-9.4-10.28-9.76-19.5ZM535.13,1281.75c-80.5-7.79-162.12-5.43-242.57-13.91-64.96-6.85-130.29-21.78-194.09-35.06-.76,3.52,1.9,4.69,3.85,6.86,47.51,52.94,324.17,49.4,400.77,51.74,10.73.33,21.57-.44,32.29-.09l-.24-9.54ZM1994.31,1252.27c2.69,2.83,68.34-2.15,78.02,0l-4.96,5.77-171.34,17.87c-5.04,14.89-20.31,4.41-32.86,6.04-11.58,1.5-14.75,8.62-17.1,19.09h77.04c2.08,0,3.73,5.61,2.92,7.79-30.89,3.65-66.52-1.12-96.62,1.88-28.22,2.82-14.42,19.64-29.63,26.94-16.08,7.71-41.22-5.02-55.1,9.23.02,6.25,52.93,5.47,60.43,6.84l-1.16,8c-4.36,1.66-8.85,2-13.5,1.87-14.09-.37-46.67-5.96-58.34-3.99-8.42,1.42-25.21,18.49-34.24,22.38,20.51,12.47,51.45,12.38,75.12,10.8,23.33-1.56,44.77-9.79,66.78-13.19,38.32-5.92,84.87-3.82,117.46-25.87l-144.32-9.78,5.28-7.38c57.72-4.51,117.72,6.58,174.79-.76,27.46-3.53,62.23-13.18,88.14-23.03,14.55-5.53,32.89-12.66,43.85-23.42l-123.92,7.91c-29.4-5.66-66.92-.4-95.51-5.97-2.25-.44-3.5-1.02-4.83-2.93l3.16-2.65c85.18-3.02,173.62,3.17,256.2-20.77,19.76-5.73,42.68-13.75,56.55-29.28.47-3.68,0-2.76-2.94-2.97-17.67-1.27-48.66,5.11-68.16,6-50.21,2.28-101.19.19-150.98,6.02-.61.86-.52,7.28-.26,7.56ZM1553.62,1252.12c2.78,4.39,89.19,7.13,100.3,5.97,8.62-.91,33.67-10.78,17.77-17.71-19.08-8.31-86.51-2.18-108.13,3.41-6.02,1.56-12.04,1.16-9.93,8.33ZM1968.95,1246.44l-12.61-2.05c-77.23,5.36-159.73-7.41-236.15-1.95-12.54.9-36.49,2.09-37.95,17.62,72.34,9.67,146.57,13.38,219.39,5.83,17.09-1.77,50.92-5.97,64.8-15.1,1.86-1.23,3.51.21,2.52-4.36ZM1568.81,1272.06c-1.05-1.69-35.04-11.71-38.02-11.86-9.22-.46-18.95,4.83-28.01,5.74-1.24,1.38,2.89,10.3,4.4,11.17,3.56,2.05,59.78,6.68,61.92,4.42-.38-2.68.92-7.49-.3-9.47ZM779.74,1269.19c-2.25-1.03.14-6.15-11.08-5.1-28.37,2.66-6.4,20.61,9.28,19.29,5.83-.49,13.06-4.17,16.82-8.69.18-.93-12.29-4.25-15.02-5.5ZM1458.21,1296.93c11.28-2.72,51.65-12.89,30.03-29.28-3.43-2.6-28.23,5.15-35.07,2.29-24.93,9.19.57,14.66,5.04,27ZM753.8,1291.25c1.46-2.18-10.74-14.75-12.55-15.7-4.65-2.45-7.82-1.05-11.37-2.27-2.86-.98-4.4-4.53-6.54-4.97-7.77-1.62-37.7,12.11-47.54,13.23-.29,2.93,4.77,3.1,6.96,3.72,9.72,2.77,66.77,12.37,71.03,5.99ZM1834.38,1285.43c-81.84-8.59-164.17-16.41-246.59-15.65l-3.11,20.49c29.72,5.83,60.37,7.44,90.65,8.88,40.74,1.93,99.19,5.56,138.62,1.94,10.36-.95,21.77-2.84,20.43-15.66ZM660.19,1275.69c-25.96-2.32-54.74-3.37-80.91-1.94-5.66.31-26.52,1.86-29.79,3.37-14,6.45,16.33,9.94,20.03,10.23,26.08,2.04,68.99,2.2,90.67-11.65ZM817.89,1276.02c-4.02-2.48-18.46,11.14-21.16,15.23,1.61,2.19,45.95,4.96,51.68,3.92,5.35-.98,6.74-6.96,3.9-7.81-10.08,5.03-18.4-6.52-21.35-7-2.28-.37-5.96,2.16-9.6.98-2.64-.86-2.73-4.87-3.47-5.32ZM1403.79,1295.64c-6.97,7.25,1.41,19.06,8.73,20.67,1.29.28,23.97-3.83,26.01-4.45,15.9-4.85,1.63-22.11-7.46-24.11-3.41-.75-25.46,6-27.28,7.9ZM381.28,1299.09c-17.39-2.28-36.19-5.44-53.79-4.05-8.96.71-13.13,4.38-25.3,4.11-36.57-.83-73.34-10.17-110.11-9.79,16.45,13.38,41.56,17.94,62.05,22.77,20.21,4.77,43.48,9.39,64.05,12.02,14.56,1.86,63.8,2.32,72.04,5.97,6.34,2.81,6.61,6.45-.2,7.95-15.75,3.49-43.72-2.52-61.42,1.99,14.32,11.91,39.6,14.81,57.84,17.24,35.12,4.67,68.39,2.51,103.15,4.12,47.71,2.22,95.45,6.05,143.29,5.92.07-3.84.97-7.8-3.23-9.44-10.04-3.93-37.29-3.35-51.39-7.12-12.3-3.29-22.18-12.95-28.35-14.56-34.2-8.95-84.77-1.48-120.93-3.9-20.07-1.34-57.24-4.43-47.7-33.22ZM1553.49,1291.29c-19.06.61-38.34-5.43-56.61,2.99,12.52,25.45,46.59,25.92,56.61-2.99ZM658.23,1304.92c6.09-5.75-21.71-7.72-24.27-7.89-13.92-.91-65.02-1.62-75.82,2.39-10.38,3.85,4.49,14.88,11.44,13.39l88.66-7.89ZM904,1299.08h-36.08c-9.18,0-31.66,7.15-28.02,20.07,4.23,14.98,70.98,5.22,64.1-20.07ZM1799.25,1312.74c-4.01-3.49-92.04,2.47-106.26,1.91-20.32-.81-114.29-20.07-123.9-14.61-3.57,2.03-5.88,12.59-1.96,15.65,7.14,6.61,110.54,22.08,125.75,22.48,25.61.67,37.12-7.55,58.62-9.8,17.76-1.86,47.8,8.95,47.75-15.62ZM524.63,1301.03c-38.34-4.64-85.52,3.46-124.83,0l-3.96,3.94-.06,5.84c1.85,3.56,8.67,4.51,12.34,5.3,24.52,5.32,72.29,5.81,98.86,6.47,15.93.39,31.97-.47,47.88-.12-12.11-9.26-14.09-19.48-30.23-21.43ZM767.08,1301.62c-8.92.85-23.72,1.58-27.86,11.16-3.51,8.13,2.4,14.74,9.77,17.45,7.98,2.94,54.37.18,63.82-2.39,10.1-2.75,17.64-7.9,9.3-18.08-8.65-10.55-41.97-9.39-55.02-8.14ZM1465.08,1305.27c-3.28,1.15-5.49,8.34-9.06,10.39,14.74,10.76,36.74,22.68,54.56,13.62.89-4.02-18.06-11.22-22.45-14.56-6.62-5.04-7.06-15.05-23.05-9.45ZM708.4,1313.28c-6.92-.59-20.3,2.99-27.76,3.32-16.86.75-100.68.75-108.26,8.76-4.42,4.67-1.56,9.49,3.22,12.48,22.06,13.78,118.82-1.09,143.07-18.28-2.88-2.35-6.43-5.95-10.26-6.28ZM923.03,1313.25c-35.15,4.84-29.92,36.6,5.4,34.68,36.9-2.01,36.57-40.46-5.4-34.68ZM1391.21,1337.66c.71-.36,7.16-11.01,9.94-12.53-4.32-17.66-25.26-7.55-37.94-6.68l-.95,20.69c2.24,1.45,27.13-.57,28.95-1.48ZM1719.28,1349.8c-26.71-.98-54.11-3.94-80.59-8.16-27.82-4.43-86.22-23.73-109.94-13.69-5.87,2.49-9.46,5.21-12.22,11.13,2.54,3.19,6.42,4.22,10.07,5.43,7.04,2.34,30.62,8.07,37.81,9,9.78,1.27,27.69-2.35,34.04-.93,4.48,1.01,15.75,10.65,21.97,13.18,26.72,10.88,72.76,5.54,96.36-11.59,1.64-1.19,3.62.23,2.5-4.38ZM980.05,1326.39c-6.55.23-13.8,4.15-13.63,11.68,7.79,1.48,12.99-4.24,13.63-11.68ZM1409.77,1330.9c-12.78,8.92,10.41,22.72,18.38,24.38,5.81,1.21,37.23-3.03,39.21-8.76,8.13-23.48-45.91-23.78-57.6-15.63ZM858.8,1332.75c-18.44.22-54.12,6.78-57.98,27.44,10.75,18.22,69.8.52,81.21-7.99,2.06-1.53,4.42-1.99,4.52-5.4,2.17-13.67-18.76-14.15-27.76-14.04ZM1348.69,1334.2c-6.05-2.82-23.75,11.65-21.43,15.55,5.94,9.98,24.03-6.51,21.43-15.55ZM790.86,1345.9c-33.05-2.61-60.79-10.53-94.34-5.61-9.95,1.46-57.56,10.21-39.06,26.86,15.63,14.07,94.3,1.71,114.98-5.56,7.26-2.55,18.31-6.69,18.42-15.7ZM1588.61,1369.31c-17.13,1.71-95.92-27.58-105.46-20.63-2.73,1.99-.18,7.86-5.09,10.51-5.16,2.79-32.3,3.68-33.21,8.99l1.4,10.83c10.5-.31,21.04-.08,31.21,2.92,6.38,1.88,17.48,10.34,20.1,10.32,6.68-.03,70.92-10.98,78.29-13.29,1.99-.62,16.48-6.47,12.76-9.66ZM1418.64,1374.89c9.62-6.19-15.16-23.85-20.67-24.79-8.05-1.37-29.16,5.41-25.78,16.07,1.17,3.7,43.97,10.31,46.45,8.72ZM968.37,1351.73c-9.88-1.25-20.22,2.11-27.12,9.11,1.44,22.76,33.32,11.27,27.12-9.11ZM1337.01,1369.28c8.64-.87,35.08-.54,24.48-15.71-5.49-7.87-26.22,6.86-24.48,15.71ZM928.85,1361.98c-4.74-4.63-37.14-12.66-34.66,4.26,2.96,20.18,47.34,8.13,34.66-4.26ZM792.83,1400.47c16.44,5.51,33.75,11.88,51.51,9.61,8.36-1.07,46.02-18.45,46.03-26.12,0-2.86-8.26-16-12.28-16.18-6.03-.27-51.35,16.11-60.39,19.56-6.34,2.42-17,5.82-22.38,8.81-2.2,1.22-3.33-.12-2.49,4.32ZM802.55,1373.23c-20.77-7.95-47.03,1.62-66.28,10.68,3.2,6.86,69.16,11.53,66.28-10.68ZM1678.32,1382.96c-30.44,6.79-65.61-16.15-92.29-1.61-21.98,11.98-12.33,18.96,6.79,23.72,27.89,6.95,76.29,13.33,85.5-22.11ZM689.45,1382.96c-40.56-3.42-81.19-7.74-122.05-6-6.09.26-8.79,3.85-13.42,4.14-6.18.39-49.84-2.29-49.79,2.83,11.16,12.16,34.28,15.72,50.27,17.95,36.36,5.08,85.34,4.73,120.38-7.2,6.25-2.13,16.15-3.16,14.6-11.72ZM1356.49,1377.11l-13.73.88.12,10.79c4.45,2.82,15.82-9.78,13.61-11.67ZM980.06,1390.78c-18.13-7.83-61.82-18.3-42,15.75,5.2,4.16,46.58-8.8,42-15.75ZM1413.06,1384.91c-17.29,1.66-47.98-12.63-52.66,10.67,17.1,6.84,45.32,11.38,52.66-10.67ZM915.69,1388.81c-3.31-.6-5.72.94-8.55,2.15-6.77,2.91-48.99,27.13-54.5,31.32-1.93,1.47-5.85,3.45-5.2,6.46,3.27,3.75,7.2,5.33,12.17,4.58,6.82-1.03,65.29-35.43,56.08-44.52ZM1479.09,1396.87c-2.26-3.67-73.5-12.55-69.92,13.37,9.75-1.47,66.9-1.28,69.93-6.1.75-1.19.74-6.04-.01-7.27ZM646.54,1421.93c20.6,2.73,90.05,7.05,101.54-12.57,9.04-15.44-29.77-13.31-37.91-12.52-7.58.74-59,14.7-61.85,18.12-1.87,2.24-2.12,4.17-1.79,6.97ZM1596.4,1416.13c-30.77-10.63-64.01-14.87-96.64-15.74l-32.18,22.48c.76,7.27,13.27,8.9,19.22,10.19,27.29,5.91,70.82,3.28,97.01-7.14,2.43-.97,15.44-5.49,12.6-9.8ZM829.58,1424.19c-2.77-4.56-50.59-15.18-59.06-13.8-7.66,1.25-24.76,13.99-22.7,22.03,2.78,10.86,70.67-.39,81.96-.83.02-2.18.81-5.75-.19-7.4ZM1455.98,1439.49c-2-21.78-43.32-7.29-56.53-16.59-3.73-2.62-4.87-8.97-9.18-10.32-4.04-1.27-38.22-3.73-39.62-2.33.7,4.55-1.92,15.75,1.92,18.58,2.43,1.79,26.38,8.5,31.25,9.71,9.55,2.38,48.3,11.04,55.67,10.88,3.5-.07,8.29-12.53,16.49-9.92ZM925.44,1412.22c-8.42-.92-16.92,3.92-24.02,8.14-3.49,2.07-22.52,15.4-18.89,19.14,21.04,4.13,37.04-7.77,42.91-27.28ZM1329.47,1443.12c11.98,6.2,13.69-29.76,2.62-31.03-11.35-1.3-7.57,24.6-2.62,31.03ZM964.46,1416.12c-10.56-10.43-47.47,16.49-42.9,23.36,4.26,6.4,10.62-1.55,11.25-1.78,11.62-4.04,27.19-8.39,31.65-21.59ZM1344.81,1453.13c16.33,6.56,35.2,13.82,50.66,1.01-12.67-8.53-46.4-24.41-50.66-1.01ZM1321.38,1445.36c-5.65-3.65-12.38,10.39-9.71,15.61,4.96-1.37,16.16-11.44,9.71-15.61ZM1381.86,1470.72c-.41.06-4.09-2.01-8.13-1.53-4.29.52-14.29,2.08-17.21,5.4,11.28,9.68,43.77,31.15,48.9,43.76,13.57,33.37-28.54,37.66-49.97,43.96-22.9,6.74-29.68,6.49-51.73,10.69-10.93,2.08-25.17,11.38-34.99,14.75-10.3,3.53-23.89,8.77-33.16,11.7-31,9.82-79.26-1.42-112.03-1.99-13.95,10.96-31.48,25.09-49.86,27.34-9.62,1.18-27.29.22-35.11-5.85-16.59-12.87-6.2-43.11-7.81-44.85-10,.75-20.39,4.98-30.26,5.8-33.26,2.77-60.35-10.48-93.54-7.72-27.58,2.29-43.7,14.68-67.39,22.32-32.16,10.36-34.28-11.58-25.3-36.01,4.87-13.25,19.45-36.94,31.21-42.91,10.33-5.25,20-1.54,23.43-14.61-6.02.54-13.43,5.5-19.03,8.37-2.35,1.21-3.99,4.1-4.4,4.29-62.17,28.63-139.65,26.78-206.76,27.31,12.37,108.25,112.75,189.31,217.52,200.86,36.58,4.03,72.94-.71,108.84-7.53,30.83,61.42,83.8,107.75,149.06,129.97,44.88,15.28,61.18,10.3,103.24-8.94,55.44-25.36,100.57-67.32,128.83-121.33,53.16,11.2,105.06,15.22,158.06.57,88.12-24.36,163.94-99.95,172.11-193.6-74.81-.38-158.35,3.12-221.81-42.48-14.07-10.11-32.04-24.76-37.65-41.34-7.13-1.01-7.26,6-15.2,9.1-4.81,1.87-14.48,3.66-19.87,4.51ZM1332.74,1465.25c-7.27-3.86-32.95,19.2-27.9,30.78,1.27,2.91,42.23,43.26,45.08,44.66,13.14,6.43,38.91-.51,32.36-18.71-5.59-15.51-40.9-40.36-49.54-56.72ZM1281.68,1503.99c-14.66,4.22,10.55,28.5,15.28,33.1,7.96,7.74,26.38,26.01,38.15,18.53,4.76-4.1-5.43-11.45-8.79-14.74-5.61-5.49-39.99-38.23-44.64-36.89ZM1260.32,1519.79c-2.2.1-5.93,2.66-7.01,4.88-1.66,5.46,29.03,41.36,36.08,41.64,3.88.15,8.71-2.55,8.66-6.86-.05-4.17-33.88-39.84-37.73-39.66ZM1229.98,1575.8c14.06,5.47,27.39,7.85,36.38-6.85-13.12-39.4-44.25-45.42-36.38,6.85ZM1219.97,1539c-32.94-3.28-44.85,56.1-1.95,48.73-6.49-16-.85-32.47,1.95-48.73ZM1178.99,1589.69l1.95-40.96c-22.52-1.46-22.06,37.98-1.95,40.96ZM1157.56,1554.59l-15.32,2.24.85,29.2,12.51,1.73,1.96-33.16ZM1130.25,1560.46c-26.61-2.75-24.78,22.31-1.96,25.33l1.96-25.33ZM1060.03,1613.08c-13.67-15.86,8.75-44.86-19.41-42.8-3.51,17.65-7.11,47.42,19.41,42.8ZM1079.54,1570.19c-21.16-4.04-21.44,40.04,0,39.01v-39.01ZM1099.01,1572.15c-18.33,3.17-6.88,39.5,7.29,22.44l-7.29-22.44ZM695.3,1712.57v103.37c119.03,38.91,243.58,59.69,368.64,68.24-47.83-27.52-89.61-61.09-118.37-108.96-71.98,12.05-142.12,1.28-205.98-33.8-15.64-8.59-28.77-20.43-44.28-28.86ZM1615.92,1814.97v-96.55c-71.54,55.07-161.45,73.78-250.2,56.86-23.89,35.82-52.16,63.7-87.41,88.27-11.22,7.82-26.49,13.14-34.95,23.57,5.38,4.06,4.94-2.49,8.68-3.05,6.76-1.02,16.04.72,23.49.12,115.72-9.34,231.19-29.76,340.39-69.21Z"/>
    <g>
      <path class="cls-4" d="M1381.86,1470.72c5.38-.85,15.05-2.63,19.87-4.51,7.94-3.09,8.07-10.11,15.2-9.1,5.6,16.58,23.58,31.23,37.65,41.34,63.46,45.6,147,42.1,221.81,42.48-8.17,93.65-83.99,169.24-172.11,193.6-53,14.65-104.9,10.63-158.06-.57-28.26,54.01-73.39,95.96-128.83,121.33-42.06,19.24-58.36,24.22-103.24,8.94-65.26-22.22-118.23-68.54-149.06-129.97-35.9,6.82-72.26,11.56-108.84,7.53-104.77-11.55-205.15-92.61-217.52-200.86,67.11-.52,144.59,1.32,206.76-27.31v1.95c-11.75,5.97-26.34,29.66-31.21,42.91-43.16,11.87-88.12,13.3-132.61,14.6,48.91,142.36,287.81,202.25,356.91,45.86,7.82,6.07,25.48,7.03,35.11,5.85-10.86,36.73-39.25,70.61-72.06,89.89l.14,2.37c22.96,50.12,66.78,89.76,117.42,110.92,34.67,14.48,39.69,14.16,74.17-.61,31.72-13.59,64.56-36.86,87.02-63.17,5.65-6.62,27.8-36.76,29.03-43.32.63-3.36.43-4.64-1.52-7.46-3.36-4.85-22.68-17.87-29.45-25.17-21.41-23.07-40.88-56.74-42.86-88.8,9.26-2.93,22.85-8.17,33.16-11.7,40.83,188.16,322.58,149.02,364.72-17.55-93.77,10.36-198.45-16.05-251.6-99.48Z"/>
      <path class="cls-3" d="M1235.58,1599.45c1.98,32.06,21.45,65.72,42.86,88.8,6.77,7.3,26.1,20.32,29.45,25.17,1.95,2.82,2.15,4.1,1.52,7.46-1.23,6.56-23.38,36.7-29.03,43.32-22.45,26.31-55.3,49.58-87.02,63.17-34.48,14.77-39.5,15.09-74.17.61-50.64-21.15-94.46-60.8-117.42-110.92l-.14-2.37c32.81-19.28,61.2-53.16,72.06-89.89,18.38-2.25,35.91-16.38,49.86-27.34,32.77.56,81.03,11.81,112.03,1.99Z"/>
      <path class="cls-3" d="M1381.86,1470.72c53.14,83.43,157.83,109.85,251.6,99.48-42.15,166.56-323.89,205.71-364.72,17.55,9.82-3.36,24.06-12.66,34.99-14.75,22.04-4.2,28.83-3.95,51.73-10.69,21.43-6.3,63.54-10.59,49.97-43.96-5.13-12.61-37.62-34.08-48.9-43.76,2.92-3.32,12.92-4.88,17.21-5.4,4.03-.48,7.72,1.59,8.13,1.53Z"/>
      <path class="cls-3" d="M814.28,1558.49c-8.98,24.43-6.86,46.38,25.3,36.01,23.69-7.63,39.82-20.03,67.39-22.32,33.19-2.76,60.28,10.49,93.54,7.72,9.87-.82,20.26-5.05,30.26-5.8,1.62,1.74-8.78,31.98,7.81,44.85-69.1,156.39-308,96.5-356.91-45.86,44.49-1.3,89.45-2.73,132.61-14.6Z"/>
    </g>
    <g>
      <path class="cls-5" d="M638.73,1726.23c-31.22,12.65-61.72,27.48-94.2,37.05-2.33.65-1.01,3.02-1.37,3.91-2.2,5.35-3.71,36.34-.74,39.22,267.86,118.48,577.66,153,867.37,108.67,123.93-18.96,244.83-55.75,357.92-109.21l.41-37.44c-.46-2.3-3.59-.91-3.98-1.24-15.99-13.89-66.02-27.98-88.25-37.16-2.27-.94-1.28-3.72-1.47-3.8l267.2-79.96c-21.04,112.73-78.65,219.31-172.62,286.69-1.97,10.25-.76,20.87-.96,31.22-.14,7.13.08,14.32,0,21.46-.22,20.75-.26,41.67,0,62.41l-17.55,29.26c-327.14,133.97-734.33,154.28-1072.29,47.33-33.35-10.56-88.72-27.51-117.49-45.38-6.73-4.18-13.36-12.31-19.5-17.55-.18-23.38.23-46.84,0-70.22-.07-7.13.12-14.32,0-21.46-.2-12.28,1.03-24.85-1-37.04-93.93-66.19-155.4-172.75-174.5-285.79l273.02,79.02ZM1727.09,2010.02c3.05-13.63-2.26-37.74,0-52.66-1.49-1.86-1.64-2.28-4.04-2.19-11.52.41-29.82,10.74-42.57,11.17l-.21,23.21,25.34-3.91c1.65,12.27-1.47,21.21-11.83,28.15-48.79,32.69-54.21-71.26-18.75-87,24.98-11.09,25.82,13.06,29.66,14.01,17.57-7.84,25.78-12.85,11.18-30.74-10.47-12.83-24.29-13.45-39.11-8.86-70.51,21.84-60.77,175.38,19.18,138.16,8.06-3.75,29.28-21.02,31.14-29.33ZM675.8,1956.37c-.34-27.7-29.08-57.61-57.35-54.44-58.55,6.56-46.59,155.39,31.08,150.11,6.19-.42,25.3-7.44,27.76-12.21,1.34-2.6,1.56-56.45-.69-58.32l-43.71-11.46.25,25.08c3.13,1.91,22.2,5.39,22.93,6.33.55.71.77,16.25.28,17.96-.67,2.36-15.1,7.16-18.42,7.06-38.46-1.25-44.47-89.92-16.4-98.09,10.5-3.06,20.9,3.33,26.94,11.45,9.85,13.26,2.49,19.82,27.33,16.55ZM1612.01,1923.22l-31.24,9.23-17.55,94.13-18.5-83.89c-3.84-4.81-23.58,4.36-30.24,3.93v142.38l19.5-6.83v-98.5l19.53,95.58c7.41-4.25,19.44-.74,20.54-11.63l18.44-101.51v101.42l19.5-3.9v-140.43ZM695.3,1927.12v142.38l78,21.45c-1.03-6.39,2.38-22.32-1.9-26.36-4.76-4.49-45.66-9.94-54.64-14.6v-35.11l50.69,11.7-.19-25.15-50.51-14.83v-28.28l54.6,13.65c-1.05-5.72,1.91-21.51-.86-25.46-2.23-3.18-65.97-17.4-75.2-19.4ZM882.53,2114.36l-38.51-149.69c-3.83-6.94-16.74-5.56-23.88-8.3l-39.04,136.53,21.58,3.11c3.25-2.39,5.35-24.8,8.64-28.47,4.34-4.84,32.47,4.89,39.57,6.32,8.18,22.18.46,40.53,31.63,40.51ZM1469.62,1958.33c-9.17,1.44-66.17,10.09-68,14.89l-.26,22.18,44.87-5.84c-19.57,37.08-28.23,77.29-31.2,118.94l21.19-5.12c.24-28.33,5.28-56.44,14.41-83.11,7.33-21.4,22.42-38.92,18.99-61.94ZM915.7,2118.27v-58.51c30.29-4.39,31.11,53.4,43.86,64.39,2.7,2.33,24.45,5.33,24.44,2.87-10.62-21.11-13.15-47.89-31.19-64.34,31.08-7.86,31.58-59.61,9.58-75.93-8.19-6.08-52.52-14.74-63.42-14.64-3.84.04-2.32-.73-2.77,2.76-1.52,11.89-1.63,33.85-1.92,46.85-.08,3.65,2.06,7.53,2.01,11.63-.29,27.38-2.08,54.27-.2,81.75l19.62,3.16ZM1356.09,1976.35c-42.97,4.51-42.18,95.25-29.79,124.35,15.36,36.08,52.6,21.12,62.4-11.68,8.1-27.12,12.04-117.35-32.6-112.67ZM1019.07,2077.31c44.55,11.84,65.29-19.29,53.67-60.49-10.36-36.73-45.44-25.96-75.12-31.18v144.33c3.99-1.4,21.46,4.82,21.46-.98v-51.69ZM1266.36,1986.1c-42.27,4.33-40.25,95.18-28.4,122.95,13.8,32.34,49.09,27.03,60.95-4.49,10.65-28.32,15.4-123.38-32.55-118.46ZM1169.26,1991.49h-76.07v142.38h78.02v-23.41h-58.51v-39.01h52.66v-23.41h-52.66v-31.21h56.56v-25.36ZM1218.03,2046.09l-37.08,1.95v21.48s37.08-1.95,37.08-1.95v-21.47Z"/>
      <path class="cls-2" d="M1768.05,2048.05c0,.35,2.04,3.15,2.1,6.59.14,8.72.87,62.66-1.05,65.64-191.42,79.99-399.85,117.16-607.65,116.95-3.39,12.23,5.79,23.27,3.81,34.03-1.54,8.4-16.63,19.95-21.03,27.8-.71,22.07,15.67,94.59-25.77,81.63-19.51-6.1-7.93-43.09-11.57-56.24-.4-1.46-11.06-6.49-11.66-16.14-.83-13.41,23.33-32.04,23.33-36.94v-34.13c-197.56.31-392.38-40.27-575.41-112.12-3.57-3.35-1.85-53.89-1.92-63.42,6.14,5.25,12.77,13.37,19.5,17.55l1.21,33.37c251.38,99.84,524.74,125.29,793.34,95.1,135.3-15.21,267.77-49.25,394.07-98.98l1.16-31.43,17.55-29.26ZM1147.82,2237.24h-17.58s.02,19.5.02,19.5l17.45-5.93.1-13.58ZM1145.84,2276.26c-15.36-.12-21.28,2.37-27.28,17.54,14.45,3.36,21.43-5.69,27.28-17.54ZM1120.5,2323.07c-1.1,1.9,0,37.55,0,43.89,0,3.87,11.7,3.87,11.7,0v-53.64c-1.74,4.36-11.31,9.07-11.7,9.75Z"/>
      <path class="cls-4" d="M543.16,1767.19c131.01,68.83,275.25,106.59,422.57,124.53,246.67,30.04,514.68,6.72,741.21-94.94,19.47-8.74,38.58-19.23,57.21-29.59.38.33,3.51-1.06,3.98,1.24l-.41,37.44c-113.09,53.45-233.99,90.25-357.92,109.21-289.71,44.32-599.51,9.81-867.37-108.67-2.98-2.88-1.46-33.87.74-39.22Z"/>
      <path class="cls-4" d="M541.21,1970.04c-113.7-80.87-187.6-213.55-198.94-353.02l331.57,93.62c.88,5.06-.69,3.03-2.78,4.08-9.75,4.93-22.49,7.52-32.34,11.51l-273.02-79.02c19.1,113.04,80.57,219.6,174.5,285.79,2.02,12.19.79,24.76,1,37.04Z"/>
      <path class="cls-4" d="M1768.05,1964.18c.21-10.35-1.01-20.97.96-31.22,93.96-67.38,151.58-173.97,172.62-286.69l-267.2,79.96c-9.26-3.83-26.98-4.32-35.11-13.63l325.71-97.54c-13.32,137.84-83.06,269.6-196.98,349.13Z"/>
      <path class="cls-4" d="M1750.5,2077.31l-1.16,31.43c-126.3,49.73-258.77,83.78-394.07,98.98-268.6,30.19-541.96,4.74-793.34-95.1l-1.21-33.37c28.77,17.87,84.13,34.82,117.49,45.38,337.96,106.95,745.15,86.64,1072.29-47.33Z"/>
      <path class="cls-4" d="M1612.01,1923.22v140.43l-19.5,3.9v-101.42l-18.44,101.51c-1.1,10.89-13.13,7.38-20.54,11.63l-19.53-95.58v98.5l-19.5,6.83v-142.38c6.66.43,26.39-8.75,30.24-3.93l18.5,83.89,17.55-94.13,31.24-9.23Z"/>
      <path class="cls-4" d="M675.8,1956.37c-24.84,3.27-17.48-3.29-27.33-16.55-6.03-8.12-16.44-14.5-26.94-11.45-28.07,8.17-22.07,96.85,16.4,98.09,3.32.11,17.76-4.7,18.42-7.06.49-1.72.27-17.25-.28-17.96-.73-.94-19.8-4.42-22.93-6.33l-.25-25.08,43.71,11.46c2.25,1.87,2.03,55.72.69,58.32-2.46,4.78-21.57,11.79-27.76,12.21-77.67,5.28-89.63-143.55-31.08-150.11,28.27-3.17,57,26.74,57.35,54.44Z"/>
      <path class="cls-4" d="M1727.09,2010.02c-1.86,8.31-23.08,25.57-31.14,29.33-79.94,37.22-89.69-116.31-19.18-138.16,14.82-4.59,28.64-3.98,39.11,8.86,14.6,17.89,6.39,22.9-11.18,30.74-3.84-.96-4.69-25.1-29.66-14.01-35.46,15.75-30.04,119.69,18.75,87,10.36-6.94,13.48-15.88,11.83-28.15l-25.34,3.91.21-23.21c12.75-.43,31.05-10.76,42.57-11.17,2.4-.09,2.55.33,4.04,2.19-2.26,14.92,3.05,39.03,0,52.66Z"/>
      <path class="cls-4" d="M695.3,1927.12c9.23,2,72.97,16.22,75.2,19.4,2.77,3.94-.19,19.73.86,25.46l-54.6-13.65v28.28l50.51,14.83.19,25.15-50.69-11.7v35.11c8.98,4.66,49.88,10.11,54.64,14.6,4.28,4.04.87,19.97,1.9,26.36l-78-21.45v-142.38Z"/>
      <polygon class="cls-4" points="1169.26 1991.49 1169.26 2016.85 1112.7 2016.85 1112.7 2048.05 1165.36 2048.05 1165.36 2071.46 1112.7 2071.46 1112.7 2110.47 1171.21 2110.47 1171.21 2133.87 1093.19 2133.87 1093.19 1991.49 1169.26 1991.49"/>
      <path class="cls-4" d="M1469.62,1958.33c3.43,23.03-11.66,40.54-18.99,61.94-9.13,26.67-14.17,54.78-14.41,83.11l-21.19,5.12c2.97-41.65,11.63-81.86,31.2-118.94l-44.87,5.84.26-22.18c1.83-4.79,58.83-13.45,68-14.89Z"/>
      <polygon class="cls-4" points="1218.03 2046.09 1218.03 2067.57 1180.95 2069.52 1180.95 2048.04 1218.03 2046.09"/>
      <path class="cls-4" d="M1120.5,2323.07c.39-.68,9.96-5.39,11.7-9.75v53.64c0,3.87-11.7,3.87-11.7,0,0-6.34-1.1-41.98,0-43.89Z"/>
      <polygon class="cls-4" points="1147.82 2237.24 1147.71 2250.82 1130.26 2256.74 1130.24 2237.24 1147.82 2237.24"/>
      <path class="cls-4" d="M1145.84,2276.26c-5.85,11.84-12.83,20.9-27.28,17.54,6-15.17,11.92-17.65,27.28-17.54Z"/>
      <g>
        <path class="cls-4" d="M915.7,2118.27l-19.62-3.16c-1.88-27.49-.09-54.37.2-81.75.04-4.1-2.1-7.98-2.01-11.63.3-13,.4-34.96,1.92-46.85.45-3.49-1.07-2.72,2.77-2.76,10.9-.1,55.23,8.56,63.42,14.64,22,16.33,21.5,68.08-9.58,75.93,18.04,16.44,20.57,43.23,31.19,64.34.02,2.46-21.74-.54-24.44-2.87-12.74-11-13.56-68.79-43.86-64.39v58.51ZM915.7,2036.35c15.2.25,40.9,12.31,41.12-12.66.21-22.76-24.21-21.19-41.12-22.45v35.11Z"/>
        <path class="cls-5" d="M915.7,2036.35v-35.11c16.92,1.25,41.33-.31,41.12,22.45-.23,24.97-25.92,12.91-41.12,12.66Z"/>
      </g>
      <g>
        <path class="cls-4" d="M882.53,2114.36c-31.17.01-23.46-18.34-31.63-40.51-7.09-1.42-35.23-11.15-39.57-6.32-3.3,3.68-5.4,26.08-8.64,28.47l-21.58-3.11,39.04-136.53c7.13,2.74,20.05,1.36,23.88,8.3l38.51,149.69ZM833.77,1997.34c-2.63-3.78-3.39,1.02-4.1,2.73-5.03,12.12-6.93,29.37-11.5,42.12l25.35,3.91c-2.03-7.19-7.43-45.41-9.75-48.76Z"/>
        <path class="cls-5" d="M833.77,1997.34c2.32,3.34,7.73,41.57,9.75,48.76l-25.35-3.91c4.57-12.75,6.47-30,11.5-42.12.71-1.7,1.47-6.51,4.1-2.73Z"/>
      </g>
      <g>
        <path class="cls-4" d="M1356.09,1976.35c44.64-4.68,40.7,85.55,32.6,112.67-9.8,32.8-47.04,47.76-62.4,11.68-12.39-29.1-13.18-119.84,29.79-124.35ZM1363.8,2001.78c-14.13-12.83-20.08,15.18-20.91,23.89-.92,9.72-4.67,91.59,20.91,68.67,9.33-8.36,9.31-84.1,0-92.56Z"/>
        <path class="cls-5" d="M1363.8,2001.78c9.32,8.46,9.34,84.2,0,92.56-25.58,22.91-21.83-58.95-20.91-68.67.83-8.7,6.78-36.72,20.91-23.89Z"/>
      </g>
      <g>
        <path class="cls-4" d="M1266.36,1986.1c47.95-4.91,43.2,90.15,32.55,118.46-11.85,31.52-47.14,36.83-60.95,4.49-11.85-27.77-13.87-118.62,28.4-122.95ZM1266.26,2009.33c-17.94,4.91-16.09,87.39-4.51,95.43,24.58,17.08,21.6-56.96,20.7-67.5-.72-8.48-3.54-31.39-16.2-27.93Z"/>
        <path class="cls-5" d="M1266.26,2009.33c12.65-3.46,15.47,19.46,16.2,27.93.9,10.54,3.88,84.58-20.7,67.5-11.58-8.05-13.43-90.53,4.51-95.43Z"/>
      </g>
      <g>
        <path class="cls-4" d="M1019.07,2077.31v51.69c0,5.79-17.46-.42-21.46.98v-144.33c29.69,5.21,64.77-5.55,75.12,31.18,11.62,41.21-9.11,72.34-53.67,60.49ZM1019.07,2051.95c48.07,13.48,45.09-46.45,0-39.01v39.01Z"/>
        <path class="cls-5" d="M1019.07,2051.95v-39.01c45.09-7.44,48.07,52.49,0,39.01Z"/>
      </g>
    </g>
    <g>
      <path class="cls-1" d="M1413.07,1260.07c.36,9.22,12.48,10.12,9.76,19.5-12,1.88-32.76-6.93-29.28,11.71l-17.55-1.96.02,17.57-25.5-1.11-1.81,16.71-27.42-1.17-3.85,16.72c-15.51-6.66-13.33,7.98-18.77,9.58-3.2.94-14.99-3.83-20.19-1.74-1.15,1.13,1.49,15.29-.44,19.08-2.07,4.07-33.07,5.25-19.18,15.19,9.96,7.13,46.31-26.32,59.29-26.29,13.65,11.17-4.64,16.91-2.6,29.07l13.56-1.87,2.17,14.23-16.87,5.06c-1.41,10.49,3.23,21.09.71,31.91-.46,1.97-16.95,31.19-19.43,35.18s-32.98,36.83-35.59,38.53c-4.71,3.07-9.31.39-14.95,4.55-3.55,2.63-5.23,10.1-6.01,10.57-.9.54-15.86,2.21-20.66,3.73-29.77,9.44-49.59,15.76-80.54,22.84-2.91.67-41.85,12.96-40.85,9.86,3.14-3.19,13.21-18.74,3.22-18.3-9.2.41-21.43,30.03-39.2,15.41-8.67,1.88,8.85,11.94-13.55,9.49-58.29-6.37-123.82-18.67-181.13,2.63-8.66,3.22-33.73,19.33-39.57,18.91-2.69-.19-4.43-1.59-5.78-3.79-3.39-6.9,6.98-25.06,11.13-31.78,9.12-14.75,16.67-25.13,36.36-23.14,12.03-24.23,29.4-45.45,37.66-71.56,22.25-.29,39.78-15.07,58.86-24.03,4.13-1.94,13.34-3.16,15.03-4.47,3.3-2.55-.7-16.75,12.66-20.51l7.02,22.16c12.54,20.69,34.65-13.55,43.89-18.06,2.04-.99,29.91-5.72,14.35-12.88-15.36-7.07-41.61,26.08-44.81,22.39-.3-7.1.69-23.39-2.98-29.2-3.57-5.64-19.22-5.89-25.27-21.54-8.32-21.48.79-33.38,18.46-43.88,8.42-5,36.85-14.87,41-19.45,1.71-1.89,2.35-3.23,2.08-5.84.08-1.87-1.58-4.4-3.22-4.78-5.4-1.25-46.95,22.07-49.57,19.38-.14-5.14-2.26-24.06-10.66-21.41-5.01,1.58-4.5,23.07-11.76,21.4-3.2-.73-9-18.79-29.21-17.57-5.54.34-13.37,4.49-17.64,3.97-5.4-.65-6.26-8.85-10.73-10.76-4.2-1.79-12.81-.39-13.55-1.09-.88-.82-1.08-19.44-7.16-21.26-4.59-1.32-13.44,10.63-20.93,9.22-1.69-.32-23.34-14.14-29.99-16.66-64.86-24.6-130.61,1.13-196.56,3.6-25.68.96-48.87-3.23-74.12-4.03-138.81-4.39-275.79,4.13-412.51-26.34-46.19-10.3-110.79-27.67-132.6-73.15,125.44,34.9,254.71,63.42,385.24,72.12,52.03,3.47,114.13,6.92,165.83,4.01,106.65-6.01,190.83-44.06,301.63-20.92,74.18,15.49,127.44,67.09,209.29,63.71,24.22-1,51.03-9.89,76.1-9.87,28.8.02,61.05,8.35,89.75,9.88,10.78.57,21.58.31,32.15-1.9-6.68,9.98-25.54,16.35-22.41,31.21,56.68-25.4,92.03-79.1,153.04-98.57,68.15-21.75,130.26-4.78,198.05-.96,116.38,6.55,250.39,10.14,366.73,5.96,105.61-3.79,208.31-24.75,309.07-54.67-19.79,39.26-70.83,58.91-112.41,64.09-91.06,11.34-190.57,1.73-282.47,12.05-92.44,1.24-187.03-10.98-279.09-7.97-11.55.38-97.08,6.03-100.38,9.84-1.08,1.25,2.18,7.4,1.97,7.76-1.51,2.54-16.95,1.34-20.4,2.06-9.01,1.88-22,11.61-35.2,11.61h-49.74ZM1108.46,1291.59c-11.2-6.57-36.74,15.21-21.68,18.91,1.8.44,22.42-10.29,23.17-11.36,1.55-2.21-.61-5.34-1.49-7.56ZM1235.79,1330.08c-1.69-2.31,2.68-17.93-8.7-19.12-11.3,3.24-4.55,18.37-5.16,19.29-.94,1.44-19.2,2.21-15.61,11.72,8.81-3.81,34.46,1.54,39.65-.26,13.43-4.66-9.59-10.83-10.18-11.63ZM1073.69,1349.79h38.03c2.22,0,17.99-16.88-1.92-17.75-7.36-.32-33.27,9.46-36.12,17.75ZM1207.99,1381.3c.83.63.29,6.46,3.26,7.49,9.87,3.41,13.5-24.42,5.45-27.1-5.85-3.66-24.89,17.67-19.16,19.32,2.76.49,8.64-1.09,10.44.29ZM1048.32,1377.1c-1.89,23.47,35.12,6.74,30.92-8.33-4.22-15.14-12.54,5.36-15.73,6.92-4.57,2.23-10.28,1.27-15.19,1.41ZM1218.49,1427.33c7.57,7.59,24.14-2.59,29.66-9.38,5.5-6.77,3.16-14,15.84-15.37,6.24-7.89-29.21-24.09-31.22-23.51-3.49,1.01-3.66,7.21-2.7,10.31,2.31,7.49,15.02,4.37,13.01,15.54-1.71,9.51-18.34,15.19-26.99,11.2-.07,3.24.08,8.88,2.41,11.22ZM1285.4,1379.07c-6.83,2.09.77,38.12,7.65,37,8.44-1.37,2.56-40.13-7.65-37ZM1268.62,1420.12c-.71-.52-5.35-.39-6.47.13-6.68,2.85-1,10.28-1.69,14.17-.41,2.33-17.4,14.94-6.06,18.57,16.63,5.32,19.37-29.08,14.22-32.87ZM1233.6,1441.41c0-3.23-2.61-5.84-5.84-5.84s-5.84,2.61-5.84,5.84,2.61,5.84,5.84,5.84,5.84-2.61,5.84-5.84ZM1209.52,1446.06c-3.31-3.32-8.2-5.2-12.94-4.59-2.52,7.3,6.47,10.41,5.95,16.46-.75,8.77-23.56,9.88-12.71,20.58,12.68-4.45,34.3-17.82,19.71-32.45ZM1275.76,1457.25c-1.61.51-21.18,22.52-11.7,25.08,13.24,3.57,26.92-29.92,11.7-25.08ZM1249.08,1484.24l9.61-16.78c-2.06-18.5-21.07,11.34-15.3,16.92l5.69-.13ZM1227.25,1497.47c3.1-3.03,12.83-24.35,5.38-26.73-5.07-2.5-14.54,20.62-14.6,22.59-.23,6.98,4.83,8.42,9.22,4.13ZM904.01,1496.08c-9.89,10.27,29.4,27.46,39.92,25.31,1.18-.24,19.76-11.71,20.56-12.62,4.42-4.98-.69-15.12,11.12-18.14,4.16-1.07,19.05,1.96,16.15-7.22-5.07-16.03-58.33,17.42-65.52,18.46-7.38,1.07-19.26-8.87-22.22-5.79ZM1193.28,1490.89c-1.15.74-2.25,4.01-4.94,5.67-8.77,5.4-25.35,10.04-25.07,21.98.38,16.56,13.31-3.3,17.84-5.75,4.11-2.22,10.1-2.17,14.88-4.63,16.27-8.38,12.4-27.05-2.7-17.28ZM1133.52,1514.99c5.54-7.13.05-14.96-7.92-13.22-1.16.25-5.06,11.42-9.87,13.92-5.13,2.67-21.63.61-18.62,10.53,3.17,10.47,32.17-5.78,36.41-11.23Z"/>
      <path class="cls-1" d="M1994.31,1252.27c-.26-.27-.35-6.69.26-7.56,49.78-5.83,100.77-3.74,150.98-6.02,19.49-.89,50.49-7.27,68.16-6,2.94.21,3.41-.71,2.94,2.97-13.87,15.53-36.79,23.55-56.55,29.28-82.58,23.94-171.02,17.75-256.2,20.77l-3.16,2.65c1.32,1.91,2.58,2.49,4.83,2.93,28.59,5.57,66.11.31,95.51,5.97l123.92-7.91c-10.96,10.75-29.31,17.88-43.85,23.42-25.91,9.86-60.68,19.5-88.14,23.03-57.06,7.33-117.07-3.75-174.79.76l-5.28,7.38,144.32,9.78c-32.59,22.06-79.14,19.96-117.46,25.87-22.01,3.4-43.46,11.63-66.78,13.19-23.68,1.58-54.61,1.67-75.12-10.8,9.03-3.89,25.82-20.96,34.24-22.38,11.68-1.97,44.25,3.62,58.34,3.99,4.65.12,9.14-.21,13.5-1.87l1.16-8c-7.5-1.37-60.41-.58-60.43-6.84,13.88-14.25,39.02-1.51,55.1-9.23,15.21-7.3,1.41-24.12,29.63-26.94,30.09-3.01,65.73,1.77,96.62-1.88.82-2.18-.83-7.79-2.92-7.79h-77.04c2.35-10.47,5.52-17.59,17.1-19.09,12.55-1.63,27.82,8.86,32.86-6.04l171.34-17.87,4.96-5.77c-9.68-2.15-75.33,2.83-78.02,0Z"/>
      <path class="cls-1" d="M381.28,1299.09c-9.53,28.79,27.64,31.88,47.7,33.22,36.16,2.42,86.74-5.05,120.93,3.9,6.17,1.61,16.05,11.27,28.35,14.56,14.11,3.77,41.36,3.19,51.39,7.12,4.2,1.64,3.3,5.61,3.23,9.44-47.84.13-95.58-3.7-143.29-5.92-34.76-1.61-68.04.55-103.15-4.12-18.24-2.43-43.52-5.33-57.84-17.24,17.69-4.52,45.67,1.49,61.42-1.99,6.81-1.51,6.54-5.14.2-7.95-8.24-3.65-57.49-4.12-72.04-5.97-20.57-2.62-43.84-7.25-64.05-12.02-20.49-4.83-45.6-9.39-62.05-22.77,36.77-.38,73.54,8.96,110.11,9.79,12.17.28,16.34-3.4,25.3-4.11,17.6-1.39,36.39,1.77,53.79,4.05Z"/>
      <path class="cls-1" d="M535.13,1281.75l.24,9.54c-10.71-.35-21.56.42-32.29.09-76.6-2.34-353.26,1.2-400.77-51.74-1.94-2.17-4.6-3.34-3.85-6.86,63.81,13.28,129.13,28.21,194.09,35.06,80.44,8.48,162.06,6.13,242.57,13.91Z"/>
      <path class="cls-1" d="M1968.95,1246.44c.99,4.56-.65,3.13-2.52,4.36-13.88,9.13-47.72,13.33-64.8,15.1-72.82,7.55-147.05,3.83-219.39-5.83,1.46-15.53,25.41-16.72,37.95-17.62,76.42-5.47,158.92,7.3,236.15,1.95l12.61,2.05Z"/>
      <path class="cls-1" d="M1834.38,1285.43c1.34,12.82-10.07,14.71-20.43,15.66-39.43,3.62-97.88,0-138.62-1.94-30.28-1.44-60.93-3.05-90.65-8.88l3.11-20.49c82.43-.76,164.76,7.06,246.59,15.65Z"/>
      <path class="cls-1" d="M1799.25,1312.74c.05,24.56-29.99,13.76-47.75,15.62-21.5,2.25-33.01,10.48-58.62,9.8-15.21-.4-118.61-15.86-125.75-22.48-3.93-3.05-1.61-13.62,1.96-15.65,9.6-5.46,103.58,13.8,123.9,14.61,14.22.57,102.26-5.4,106.26-1.91Z"/>
      <path class="cls-1" d="M1719.28,1349.8c1.12,4.61-.86,3.18-2.5,4.38-23.6,17.13-69.64,22.47-96.36,11.59-6.22-2.53-17.5-12.18-21.97-13.18-6.35-1.43-24.26,2.19-34.04.93-7.19-.93-30.77-6.67-37.81-9-3.65-1.21-7.53-2.24-10.07-5.43,2.76-5.91,6.35-8.64,12.22-11.13,23.72-10.04,82.12,9.26,109.94,13.69,26.48,4.21,53.88,7.18,80.59,8.16Z"/>
      <path class="cls-1" d="M689.45,1382.96c1.55,8.57-8.35,9.59-14.6,11.72-35.04,11.93-84.02,12.28-120.38,7.2-15.99-2.24-39.11-5.79-50.27-17.95-.05-5.12,43.61-2.44,49.79-2.83,4.63-.29,7.32-3.88,13.42-4.14,40.85-1.74,81.49,2.58,122.05,6Z"/>
      <path class="cls-1" d="M790.86,1345.9c-.1,9.01-11.16,13.15-18.42,15.7-20.68,7.26-99.35,19.62-114.98,5.56-18.5-16.65,29.11-25.41,39.06-26.86,33.54-4.92,61.29,3,94.34,5.61Z"/>
      <path class="cls-1" d="M1588.61,1369.31c3.72,3.18-10.77,9.04-12.76,9.66-7.37,2.31-71.61,13.26-78.29,13.29-2.61.01-13.72-8.44-20.1-10.32-10.16-3-20.71-3.23-31.21-2.92l-1.4-10.83c.91-5.31,28.05-6.2,33.21-8.99,4.9-2.65,2.36-8.52,5.09-10.51,9.54-6.95,88.33,22.34,105.46,20.63Z"/>
      <path class="cls-1" d="M1332.74,1465.25c8.64,16.36,43.95,41.21,49.54,56.72,6.55,18.21-19.21,25.15-32.36,18.71-2.85-1.39-43.81-41.75-45.08-44.66-5.05-11.58,20.63-34.64,27.9-30.78Z"/>
      <path class="cls-1" d="M1596.4,1416.13c2.85,4.31-10.17,8.83-12.6,9.8-26.19,10.41-69.72,13.05-97.01,7.14-5.95-1.29-18.46-2.92-19.22-10.19l32.18-22.48c32.63.86,65.88,5.11,96.64,15.74Z"/>
      <path class="cls-1" d="M708.4,1313.28c3.84.33,7.38,3.92,10.26,6.28-24.25,17.18-121,32.06-143.07,18.28-4.78-2.98-7.63-7.81-3.22-12.48,7.58-8.01,91.4-8.01,108.26-8.76,7.46-.33,20.84-3.91,27.76-3.32Z"/>
      <path class="cls-1" d="M524.63,1301.03c16.14,1.95,18.12,12.17,30.23,21.43-15.91-.35-31.95.51-47.88.12-26.57-.66-74.34-1.15-98.86-6.47-3.67-.8-10.49-1.75-12.34-5.3l.06-5.84,3.96-3.94c39.31,3.46,86.49-4.64,124.83,0Z"/>
      <path class="cls-1" d="M1678.32,1382.96c-9.21,35.44-57.61,29.06-85.5,22.11-19.11-4.77-28.77-11.74-6.79-23.72,26.68-14.54,61.85,8.4,92.29,1.61Z"/>
      <path class="cls-1" d="M792.83,1400.47c-.84-4.44.28-3.1,2.49-4.32,5.38-2.99,16.04-6.38,22.38-8.81,9.04-3.45,54.37-19.83,60.39-19.56,4.02.18,12.29,13.32,12.28,16.18,0,7.67-37.67,25.04-46.03,26.12-17.75,2.28-35.07-4.1-51.51-9.61Z"/>
      <path class="cls-1" d="M767.08,1301.62c13.06-1.25,46.37-2.4,55.02,8.14,8.34,10.17.8,15.32-9.3,18.08-9.45,2.58-55.84,5.33-63.82,2.39-7.37-2.71-13.28-9.32-9.77-17.45,4.14-9.58,18.95-10.31,27.86-11.16Z"/>
      <path class="cls-1" d="M858.8,1332.75c8.99-.11,29.92.38,27.76,14.04-.1,3.42-2.47,3.87-4.52,5.4-11.41,8.51-70.46,26.21-81.21,7.99,3.86-20.66,39.54-27.22,57.98-27.44Z"/>
      <path class="cls-1" d="M1455.98,1439.49c-8.2-2.6-13,9.85-16.49,9.92-7.38.15-46.12-8.51-55.67-10.88-4.87-1.21-28.82-7.92-31.25-9.71-3.84-2.83-1.22-14.03-1.92-18.58,1.41-1.4,35.58,1.06,39.62,2.33,4.31,1.36,5.46,7.7,9.18,10.32,13.21,9.3,54.53-5.19,56.53,16.59Z"/>
      <path class="cls-1" d="M1553.62,1252.12c-2.11-7.17,3.91-6.77,9.93-8.33,21.62-5.59,89.06-11.72,108.13-3.41,15.91,6.93-9.14,16.8-17.77,17.71-11.11,1.17-97.52-1.58-100.3-5.97Z"/>
      <path class="cls-1" d="M646.54,1421.93c-.33-2.8-.08-4.73,1.79-6.97,2.85-3.42,54.28-17.38,61.85-18.12,8.14-.79,46.95-2.92,37.91,12.52-11.5,19.63-80.95,15.3-101.54,12.57Z"/>
      <path class="cls-1" d="M829.58,1424.19c1,1.65.21,5.22.19,7.4-11.28.44-79.18,11.69-81.96.83-2.06-8.04,15.04-20.78,22.7-22.03,8.47-1.39,56.29,9.24,59.06,13.8Z"/>
      <path class="cls-1" d="M923.03,1313.25c41.97-5.78,42.3,32.67,5.4,34.68-35.33,1.92-40.55-29.84-5.4-34.68Z"/>
      <path class="cls-1" d="M1409.77,1330.9c11.69-8.15,65.73-7.85,57.6,15.63-1.98,5.72-33.4,9.97-39.21,8.76-7.98-1.67-31.16-15.46-18.38-24.38Z"/>
      <path class="cls-1" d="M904,1299.08c6.88,25.28-59.88,35.05-64.1,20.07-3.64-12.92,18.84-20.07,28.02-20.07h36.08Z"/>
      <path class="cls-1" d="M660.19,1275.69c-21.68,13.85-64.58,13.7-90.67,11.65-3.7-.29-34.03-3.77-20.03-10.23,3.27-1.51,24.13-3.06,29.79-3.37,26.17-1.43,54.95-.38,80.91,1.94Z"/>
      <path class="cls-1" d="M1229.98,1575.8c-7.86-52.27,23.26-46.25,36.38-6.85-8.99,14.7-22.32,12.32-36.38,6.85Z"/>
      <path class="cls-1" d="M658.23,1304.92l-88.66,7.89c-6.95,1.49-21.82-9.54-11.44-13.39,10.8-4.01,61.9-3.3,75.82-2.39,2.56.17,30.36,2.14,24.27,7.89Z"/>
      <path class="cls-1" d="M753.8,1291.25c-4.26,6.38-61.31-3.22-71.03-5.99-2.19-.62-7.25-.79-6.96-3.72,9.84-1.12,39.76-14.85,47.54-13.23,2.13.44,3.68,4,6.54,4.97,3.55,1.21,6.73-.19,11.37,2.27,1.81.95,14,13.52,12.55,15.7Z"/>
      <path class="cls-1" d="M1281.68,1503.99c4.65-1.34,39.03,31.4,44.64,36.89,3.35,3.28,13.54,10.64,8.79,14.74-11.78,7.48-30.19-10.79-38.15-18.53-4.73-4.6-29.93-28.88-15.28-33.1Z"/>
      <path class="cls-1" d="M1219.97,1539c-2.8,16.26-8.44,32.74-1.95,48.73-42.9,7.37-30.99-52.01,1.95-48.73Z"/>
      <path class="cls-1" d="M1458.21,1296.93c-4.47-12.34-29.97-17.81-5.04-27,6.83,2.86,31.64-4.89,35.07-2.29,21.62,16.4-18.75,26.57-30.03,29.28Z"/>
      <path class="cls-1" d="M1568.81,1272.06c1.22,1.97-.08,6.79.3,9.47-2.14,2.26-58.36-2.38-61.92-4.42-1.52-.87-5.64-9.79-4.4-11.17,9.06-.91,18.79-6.19,28.01-5.74,2.98.15,36.97,10.17,38.02,11.86Z"/>
      <path class="cls-1" d="M1479.09,1396.87c.75,1.22.76,6.07.01,7.27-3.03,4.82-60.18,4.64-69.93,6.1-3.58-25.92,67.66-17.04,69.92-13.37Z"/>
      <path class="cls-1" d="M1553.49,1291.29c-10.02,28.92-44.09,28.44-56.61,2.99,18.27-8.42,37.56-2.38,56.61-2.99Z"/>
      <path class="cls-1" d="M1403.79,1295.64c1.83-1.9,23.87-8.65,27.28-7.9,9.08,2.01,23.36,19.26,7.46,24.11-2.04.62-24.72,4.74-26.01,4.45-7.31-1.61-15.7-13.42-8.73-20.67Z"/>
      <path class="cls-1" d="M915.69,1388.81c9.21,9.09-49.27,43.49-56.08,44.52-4.97.75-8.9-.83-12.17-4.58-.64-3.01,3.27-4.99,5.2-6.46,5.51-4.19,47.73-28.41,54.5-31.32,2.83-1.22,5.25-2.76,8.55-2.15Z"/>
      <path class="cls-1" d="M802.55,1373.23c2.87,22.21-63.09,17.53-66.28,10.68,19.25-9.06,45.51-18.63,66.28-10.68Z"/>
      <path class="cls-1" d="M980.06,1390.78c4.57,6.95-36.8,19.91-42,15.75-19.82-34.05,23.88-23.58,42-15.75Z"/>
      <path class="cls-1" d="M1418.64,1374.89c-2.48,1.59-45.27-5.02-46.45-8.72-3.38-10.66,17.73-17.43,25.78-16.07,5.51.94,30.29,18.6,20.67,24.79Z"/>
      <path class="cls-1" d="M1260.32,1519.79c3.85-.18,37.68,35.49,37.73,39.66.05,4.3-4.77,7.01-8.66,6.86-7.05-.28-37.74-36.18-36.08-41.64,1.08-2.22,4.81-4.77,7.01-4.88Z"/>
      <path class="cls-1" d="M1465.08,1305.27c15.99-5.61,16.43,4.41,23.05,9.45,4.39,3.34,23.34,10.54,22.45,14.56-17.82,9.05-39.82-2.87-54.56-13.62,3.57-2.05,5.79-9.24,9.06-10.39Z"/>
      <path class="cls-1" d="M1391.21,1337.66c-1.82.92-26.71,2.93-28.95,1.48l.95-20.69c12.68-.87,33.63-10.98,37.94,6.68-2.78,1.52-9.22,12.17-9.94,12.53Z"/>
      <path class="cls-1" d="M1413.06,1384.91c-7.33,22.05-35.55,17.51-52.66,10.67,4.68-23.3,35.36-9.01,52.66-10.67Z"/>
      <path class="cls-1" d="M1344.81,1453.13c4.27-23.39,38-7.52,50.66,1.01-15.46,12.81-34.33,5.55-50.66-1.01Z"/>
      <path class="cls-1" d="M1060.03,1613.08c-26.52,4.63-22.92-25.14-19.41-42.8,28.15-2.06,5.74,26.94,19.41,42.8Z"/>
      <path class="cls-1" d="M817.89,1276.02c.73.45.82,4.46,3.47,5.32,3.63,1.18,7.31-1.35,9.6-.98,2.95.48,11.27,12.03,21.35,7,2.84.85,1.45,6.83-3.9,7.81-5.72,1.04-50.07-1.73-51.68-3.92,2.71-4.09,17.14-17.71,21.16-15.23Z"/>
      <path class="cls-1" d="M928.85,1361.98c12.68,12.39-31.7,24.43-34.66,4.26-2.48-16.92,29.92-8.89,34.66-4.26Z"/>
      <path class="cls-1" d="M925.44,1412.22c-5.86,19.52-21.86,31.42-42.91,27.28-3.62-3.74,15.4-17.07,18.89-19.14,7.1-4.22,15.6-9.07,24.02-8.14Z"/>
      <path class="cls-1" d="M964.46,1416.12c-4.45,13.19-20.03,17.54-31.65,21.59-.63.22-6.99,8.17-11.25,1.78-4.58-6.87,32.34-33.8,42.9-23.36Z"/>
      <path class="cls-1" d="M1079.54,1570.19v39.01c-21.44,1.03-21.16-43.05,0-39.01Z"/>
      <path class="cls-1" d="M1178.99,1589.69c-20.11-2.98-20.57-42.42,1.95-40.96l-1.95,40.96Z"/>
      <path class="cls-1" d="M779.74,1269.19c2.73,1.25,15.2,4.56,15.02,5.5-3.76,4.52-10.99,8.2-16.82,8.69-15.68,1.32-37.65-16.63-9.28-19.29,11.23-1.05,8.83,4.07,11.08,5.1Z"/>
      <polygon class="cls-1" points="1157.56 1554.59 1155.6 1587.75 1143.09 1586.02 1142.24 1556.83 1157.56 1554.59"/>
      <path class="cls-1" d="M968.37,1351.73c6.2,20.37-25.68,31.87-27.12,9.11,6.9-7,17.24-10.36,27.12-9.11Z"/>
      <path class="cls-1" d="M1329.47,1443.12c-4.95-6.43-8.73-32.33,2.62-31.03,11.07,1.27,9.36,37.22-2.62,31.03Z"/>
      <path class="cls-1" d="M1130.25,1560.46l-1.96,25.33c-22.82-3.02-24.65-28.08,1.96-25.33Z"/>
      <path class="cls-1" d="M1337.01,1369.28c-1.74-8.85,18.99-23.58,24.48-15.71,10.59,15.17-15.84,14.84-24.48,15.71Z"/>
      <path class="cls-1" d="M1099.01,1572.15l7.29,22.44c-14.18,17.06-25.63-19.27-7.29-22.44Z"/>
      <path class="cls-1" d="M1348.69,1334.2c2.6,9.03-15.48,25.53-21.43,15.55-2.32-3.9,15.38-18.36,21.43-15.55Z"/>
      <path class="cls-1" d="M1356.49,1377.11c2.21,1.89-9.15,14.49-13.61,11.67l-.12-10.79,13.73-.88Z"/>
      <path class="cls-4" d="M845.48,1513.63c.41-.19,2.05-3.08,4.4-4.29,5.6-2.87,13-7.83,19.03-8.37-3.43,13.07-13.1,9.36-23.43,14.61v-1.95Z"/>
      <path class="cls-1" d="M1321.38,1445.36c6.45,4.17-4.75,14.23-9.71,15.61-2.67-5.22,4.06-19.26,9.71-15.61Z"/>
      <path class="cls-1" d="M980.05,1326.39c-.64,7.44-5.84,13.16-13.63,11.68-.17-7.54,7.08-11.45,13.63-11.68Z"/>
      <path class="cls-2" d="M904.01,1496.08c2.96-3.08,14.84,6.85,22.22,5.79,7.18-1.04,60.45-34.49,65.52-18.46,2.9,9.18-11.99,6.15-16.15,7.22-11.81,3.02-6.7,13.16-11.12,18.14-.8.9-19.38,12.37-20.56,12.62-10.52,2.16-49.8-15.04-39.92-25.31Z"/>
      <path class="cls-2" d="M1218.49,1427.33c-2.33-2.33-2.48-7.97-2.41-11.22,8.65,3.99,25.28-1.68,26.99-11.2,2.01-11.17-10.7-8.05-13.01-15.54-.96-3.1-.8-9.3,2.7-10.31,2.01-.58,37.47,15.62,31.22,23.51-12.68,1.38-10.34,8.6-15.84,15.37-5.51,6.79-22.09,16.97-29.66,9.38Z"/>
      <path class="cls-2" d="M1235.79,1330.08c.59.81,23.61,6.97,10.18,11.63-5.18,1.8-30.84-3.55-39.65.26-3.6-9.51,14.66-10.28,15.61-11.72.61-.93-6.15-16.06,5.16-19.29,11.38,1.19,7.01,16.81,8.7,19.12Z"/>
      <path class="cls-2" d="M1193.28,1490.89c15.11-9.77,18.97,8.9,2.7,17.28-4.78,2.46-10.76,2.41-14.88,4.63-4.53,2.45-17.46,22.31-17.84,5.75-.28-11.94,16.31-16.58,25.07-21.98,2.69-1.66,3.79-4.92,4.94-5.67Z"/>
      <path class="cls-2" d="M1073.69,1349.79c2.85-8.3,28.76-18.08,36.12-17.75,19.91.87,4.14,17.75,1.92,17.75h-38.03Z"/>
      <path class="cls-2" d="M1133.52,1514.99c-4.23,5.45-33.23,21.7-36.41,11.23-3.01-9.92,13.49-7.86,18.62-10.53,4.8-2.49,8.71-13.66,9.87-13.92,7.98-1.74,13.46,6.09,7.92,13.22Z"/>
      <path class="cls-2" d="M1209.52,1446.06c14.6,14.63-7.03,28-19.71,32.45-10.85-10.7,11.96-11.81,12.71-20.58.52-6.04-8.47-9.15-5.95-16.46,4.75-.61,9.63,1.27,12.94,4.59Z"/>
      <path class="cls-2" d="M1207.99,1381.3c-1.8-1.38-7.68.2-10.44-.29-5.73-1.64,13.32-22.97,19.16-19.32,8.05,2.68,4.42,30.51-5.45,27.1-2.98-1.03-2.44-6.85-3.26-7.49Z"/>
      <path class="cls-2" d="M1268.62,1420.12c5.14,3.79,2.4,38.19-14.22,32.87-11.34-3.63,5.65-16.24,6.06-18.57.69-3.9-4.99-11.33,1.69-14.17,1.12-.52,5.76-.65,6.47-.13Z"/>
      <path class="cls-2" d="M1048.32,1377.1c4.9-.14,10.61.82,15.19-1.41,3.19-1.56,11.51-22.06,15.73-6.92,4.2,15.08-32.8,31.8-30.92,8.33Z"/>
      <path class="cls-2" d="M1285.4,1379.07c10.21-3.13,16.08,35.63,7.65,37-6.88,1.12-14.47-34.91-7.65-37Z"/>
      <path class="cls-2" d="M1108.46,1291.59c.87,2.22,3.04,5.35,1.49,7.56-.75,1.07-21.37,11.8-23.17,11.36-15.06-3.7,10.48-25.48,21.68-18.91Z"/>
      <path class="cls-2" d="M1275.76,1457.25c15.23-4.84,1.54,28.66-11.7,25.08-9.49-2.56,10.09-24.57,11.7-25.08Z"/>
      <path class="cls-2" d="M1227.25,1497.47c-4.39,4.29-9.44,2.84-9.22-4.13.06-1.98,9.53-25.1,14.6-22.59,7.45,2.38-2.28,23.7-5.38,26.73Z"/>
      <path class="cls-2" d="M1249.08,1484.24l-5.69.13c-5.77-5.58,13.24-35.42,15.3-16.92l-9.61,16.78Z"/>
      <circle class="cls-2" cx="1227.75" cy="1441.41" r="5.84"/>
    </g>
  </g>
  <g>
    <path class="cls-3" d="M1154.91,101.71c4.03-.69,37.98,33.21,44.64,38.73,67.99,56.37,151.33,99.26,195.03,179.46,57.1,104.79,40.41,237.76-39.33,325.54-119.48-82.73-277.86-82.19-397.36.07-72.07-82.23-92.31-200.94-48.94-302.1,47.63-111.1,166.82-157.98,245.97-241.7Z"/>
    <g>
      <path class="cls-4" d="M978.11,1230.81c-10.04-3.99-20.27-7.58-30.3-11.63-.63-60.45-18.64-123.91-69.34-160.82-66.32-48.28-169.26-34.93-206.91,42.41-16.99,34.9-14.57,72.84-11.36,110.54-222.76,5.47-360.4-261.61-273.41-453.82,92.49-204.37,373.82-240.91,516.5-69.03,3.62,1.09,24.24-17.12,26.16-22.42.27-3.05-23.94-33.29-28.22-40.03-72.41-113.86-68.53-253.2,13.71-360.47,48.2-62.87,117.33-100.64,176.33-151.35,22.61-19.44,42.48-41.94,65.34-61.09,20.36,19.75,40.7,39.84,62.45,58.09,63.74,53.49,139.48,93.36,188.59,162.49,83.69,117.8,72.94,282.31-22.98,389.57-2.5,5.74,20.49,21.33,25.2,25.18,202.97-231.69,589.13-71.57,541.19,244.59-14.76,97.34-85.3,212.8-177.79,253.26-38.01,16.63-79.81,7.68-120.3,7.48,2.77-31.39,4.82-59.75-6.86-89.69-32.79-84.08-137.14-96.31-205.55-47.65-51.42,36.57-70.76,99.41-70.73,160.41-12.16,5.63-22.99,13.49-34.77,19.83l6.81-68.28c-113.18,69.67-255.21,73.38-367.63.02l3.88,62.41ZM1154.91,101.71c-79.15,83.73-198.34,130.6-245.97,241.7-43.37,101.16-23.13,219.87,48.94,302.1,119.5-82.26,277.89-82.8,397.36-.07,79.74-87.78,96.43-220.75,39.33-325.54-43.7-80.2-127.04-123.09-195.03-179.46-6.66-5.52-40.6-39.42-44.64-38.73ZM1139.61,618.95c-233.87,11.89-368.75,273.03-216.05,460.64,102.06,125.4,292.33,145.05,419.08,44.71,225.61-178.6,79.76-519.73-203.03-505.35ZM621.18,1168.4v-32.18c0-18.47,14.86-54.83,24.54-71.03,40.52-67.83,118.13-86.05,191.96-68.44-30.21-95.72-11.73-198.87,46.6-279.59-126.69-145.78-378.24-126.18-458.48,57.89-40.26,92.36-24.46,192.77,28.79,276.16,35.96,56.32,96.46,113.55,166.6,117.2ZM1475.49,994.79c109.41-35.86,219.31,31.86,224.42,149.16.27,6.12-4.06,20.84-.17,23.59,100.68-12.97,178.52-118.39,202.74-210.92,55.27-211.23-125.28-382.03-333.79-325.99-53.76,14.45-102.47,45.67-139.8,86.52,55.4,81.54,78.16,182.07,46.6,277.65Z"/>
      <path class="cls-3" d="M978.11,1230.81l-3.88-62.41c112.41,73.36,254.44,69.66,367.63-.02l-6.81,68.28c-77.5,41.69-102.39,16.86-180.49,19.43-42.97,1.41-58.32,14.58-103.33,2.06-23.94-6.66-49.83-18.09-73.11-27.34Z"/>
      <path class="cls-3" d="M621.18,1168.4c-70.14-3.65-130.63-60.87-166.6-117.2-53.25-83.39-69.05-183.8-28.79-276.16,80.24-184.07,331.79-203.67,458.48-57.89-58.34,80.72-76.82,183.87-46.6,279.59-73.82-17.61-151.44.61-191.96,68.44-9.68,16.21-24.54,52.56-24.54,71.03v32.18Z"/>
      <path class="cls-3" d="M1475.49,994.79c31.56-95.58,8.8-196.1-46.6-277.65,37.33-40.85,86.03-72.07,139.8-86.52,208.51-56.04,389.06,114.76,333.79,325.99-24.21,92.53-102.05,197.95-202.74,210.92-3.89-2.75.44-17.47.17-23.59-5.11-117.3-115.01-185.01-224.42-149.16Z"/>
      <path class="cls-5" d="M1139.61,618.95c282.79-14.37,428.65,326.75,203.03,505.35-126.74,100.33-317.01,80.68-419.08-44.71-152.7-187.61-17.83-448.75,216.05-460.64Z"/>
      <path class="cls-5" d="M1193.56,650.12c-.64-.63-1.9-14.55-4.02-17.44-4.91,1.71-4.39,12.55-7.71,14.68-3.86,2.48-12.84.16-17.62.93,11.49,11.78,13.3,12.81,7.82,29.24,14.46-10.76,15.44-7.62,29.19,1-1.36-3.16-3.93-12.83-3.4-15.44,1.22-5.89,13.72-6.07,13.18-12.86-3.25-.66-16.39.94-17.45-.11Z"/>
      <path class="cls-5" d="M1146.64,648.28c-19.69,6.11-17.12-1.19-27.27-13.66-.95,17.49-1.21,19.6-19.53,19.51-1.07,6.98,11.18,4.94,13.34,11.04,1.91,5.4-.87,11.04-1.62,16.24,6.69.46,8.5-9.48,14.56-9.68,3.56-.12,14.45,7.55,16.64,5.77-11.94-17.6-4.32-14.41,3.89-29.23Z"/>
      <path class="cls-5" d="M1260.04,667.53c-1.6-2.11.62-15.26-.28-19.26-10.56,12.34-10.53,15.5-27.27,9.76,7.11,12.53,7.63,15.92-1.96,27.27,15.21-3.53,18.11-2.31,27.28,9.77,1.59-16.94,3.04-16.1,17.57-22.44-1.98-2-14.74-4.32-15.34-5.11Z"/>
      <path class="cls-5" d="M1080.34,661.94c-17.16,5.26-15.55,4.41-27.28-7.82-.56,4.66,1.36,11.52-.99,15.61-2.55,4.45-14.01,3.2-12.69,9.72,17.32.75,16.62,5.74,15.63,21.48,10.12-12.39,9.47-16.32,27.28-11.72-9.45-13.81-11.9-12.05-1.95-27.26Z"/>
      <path class="cls-5" d="M1333.89,708.72c.87-6.99-9.61-6.01-11.36-11.03-1.85-5.3.38-12.73.67-18.18-10.89,11.92-14.98,10.7-28.29,3.87,5.63,14.15,4.69,16.87-5.86,27.27,20.64-2.74,15.75,1.94,25.33,15.62,2.96-15.62,1.69-20.06,19.52-17.56Z"/>
      <path class="cls-5" d="M1019.87,687.29c-15.88,9.75-12.46,15.53-31.2,3.91,9.71,15.2,4.68,17.92-5.85,29.21,5.37.14,10.69-3.52,16.22-1.63,6.36,2.18,4.34,13.62,11.06,13.35,2.1-16.94,5.4-16.49,21.47-17.57-1.26-3.86-12.7-5.77-13.66-9.18-1.52-5.43,1.04-12.66,1.96-18.09Z"/>
      <path class="cls-5" d="M1154.07,691.76c-155.27,7.11-259.49,171.87-180.06,311.53,79.88,140.44,287.15,146.01,375.12,10.31,96.38-148.68-24.82-329.63-195.06-321.84Z"/>
      <path class="cls-5" d="M1378.75,730.2c-18.01,6.54-16.6,3.4-27.27-9.76,1.55,16.17.42,19.97-15.62,23.43,10.79,10.44,19.14,2.56,15.61,23.37,5.63,1.67,7.93-11.1,11.11-11.81,4.24-.94,13.15,3.67,18.09,3.07-12.19-13.78-10.34-13.16-1.92-28.3Z"/>
      <path class="cls-5" d="M967.2,736.05c-6.95-.63-4.22,9.37-11.15,11.39-5.43,1.58-10.73-2.44-16.13-1.64-2.26,2.02,7.15,10.41,7.46,13.02.45,3.8-9.8,11.97-7.45,14.26,4.72.26,11.1-4.79,15.55-2.96,4.64,1.91,10.23,20.04,11.76,9.84,2.11-14.15-5.02-15.95,15.59-18.6-10.71-9.52-18.98-6.8-15.61-25.32Z"/>
      <path class="cls-5" d="M1394.33,775.06c-5.25-5.17-4.07,15.84-6.05,17.31-1.29.96-13.91.47-17.31,2.21.58,3.97,12.56,6.81,13.3,8.11,1.88,3.28-.64,14.54.36,19.18,11.85-12.75,14.47-10.31,29.23-3.92-10.9-15.32-3.36-16.44,3.89-29.23-24.18,9.09-16.48-6.81-23.42-13.65Z"/>
      <path class="cls-5" d="M930.14,792.6c-4.29-6.15-7.27,14.83-7.99,15.4-1.87,1.45-13.68-.58-17.34.22-.51,6.13,10.2,7.13,11.28,12.94.71,3.84-5.08,11.72-4.49,16.26,14.67-12.02,15.12-9.74,30.21-.9-6.74-14.37-3.21-17.56,7.85-26.34-13.39-.26-20.17-2.75-19.52-17.58Z"/>
      <path class="cls-5" d="M1441.17,856.99c-17.71,2.68-19.64-3.66-21.48-19.51-4.53,2.12-6.07,14.62-9.72,16.7-2.6,1.47-13.22-2.84-17.56-1.09,11.07,9.38,13.88,13.23,7.81,27.27,12.94-5.67,15.95-7.82,26.33,3.9-.59-17.99,2.82-16.91,14.62-27.27Z"/>
      <path class="cls-5" d="M912.99,868.28c-1.98-1.07-4.15-12.83-10.13-11.3,1.77,16.85-.02,16.59-15.61,19.52,12.51,9.81,16.14,6.18,13.67,25.33,12.35-12.08,12.83-13.33,29.22-5.86-8.36-14.61-10.32-15.84,1.96-29.22-5.31-1.44-14.81,3.86-19.12,1.54Z"/>
      <path class="cls-5" d="M1429.46,903.79c-14.02,8.09-9.62,15.3-29.25,7.81,9.17,13.38,5.39,15.39-1.94,27.27,13.54-3.18,18.92-2.44,23.42,11.7,5.93-2.72,1.93-12.48,5.75-16.63,3.33-3.62,13.88-1.69,15.66-5.79-14.74-5.83-19.28-6.89-13.65-24.36Z"/>
      <path class="cls-5" d="M904.76,921.35c-.29-.23-4.1-.72-3.9.99.52,5.18,3.98,11.48,1.02,16.56-2.59,4.45-14,3.19-12.7,9.73,3.29.55,13.23.88,15.17,2.38,3.76,2.9-.06,15.23,6.26,17.13,2.12-15.47,10.72-13.59,23.42-14.61-13.38-10.21-9.21-12.87-3.9-26.33-5.46-1.63-12.29,6.21-16.28,5.51-5.08-.9-8.15-10.59-9.1-11.35Z"/>
      <path class="cls-5" d="M1419.71,968.15c-1.76-1.9-10.7,7.15-14.63,7.08-4.72-.08-12.1-11.6-14.61-9.03,6.57,19.93,2.96,14.86-9.76,27.27,16.25-2.48,19.1,2.61,21.48,17.57,9.58-13.69,4.7-18.37,25.33-15.62-13.61-10.22-12.2-11.53-7.81-27.27Z"/>
      <path class="cls-5" d="M944.1,1001.01c-2.26-3.55,3.09-14.34,1.63-19.21-12.77,12.77-12.42,12.4-29.22,5.86,6.27,14.55,8.25,15.6-3.91,27.27,19.49-4.67,14.91,1.58,25.33,13.67,2.3-15.96,1.81-19.91,19.52-17.56,1.55-6.79-12.19-8.22-13.35-10.03Z"/>
      <path class="cls-5" d="M1390.45,1030.57c-4.72-.87-9.64,2.79-14.17,1.65-5.78-1.45-6.45-11.58-13.12-11.4-.89.95,4.41,10.53,1.03,15.67-1.25,1.91-19.41,5.73-14.7,9.65,15.62.97,17.16,4.11,15.62,19.51,6.63.84,5.7-9.64,11.09-11.44,4.35-1.45,13.01,1.45,17.21,3.6.46-5.69-8.22-10.08-8.53-14.92-.25-3.92,7.54-6.56,5.57-12.32Z"/>
      <path class="cls-5" d="M975,1032.52c-12.71,7.35-7.58,17.42-27.28,11.7-.47,5.86,7.32,7.18,7.85,12.75.5,5.2-5.4,11.05-4.96,16.45,14.63-10.92,16.2-2.57,28.29,3.94,1-4.54-3-10.17-1.73-14.25,1.92-6.14,13.82-4.42,13.44-11.07-15.62-.97-17.16-4.11-15.61-19.51Z"/>
      <path class="cls-5" d="M1329.97,1065.67c-4.46-4.29-7.32,13.18-9.65,14.69-3.61,2.33-11.28.3-15.67.93,11.47,10.01,13.69,11.24,9.77,27.28,13.95-10.43,15.37-7.66,29.23-.02-7.51-15.86-6.87-16.46,5.85-27.26-14.3,2.19-17.07-2.62-19.53-15.62Z"/>
      <path class="cls-5" d="M1017.9,1075.42c-4.57-5.59-7.26,14.83-7.99,15.39-1.87,1.45-13.68-.58-17.34.22-1.69,5.52,13.07,10.9,13.57,11.86.42.79-6.05,13.92-4.83,17.35,14.46-13.15,15-8.58,30.21-.9-.84-3.32-5.84-13.2-5.48-15.34.88-5.22,11.8-6.43,11.37-12.96-15.87,1.79-17.63-.08-19.51-15.62Z"/>
      <path class="cls-5" d="M1296.84,1118.35c-15.08,1.57-20.99-2.05-21.48-17.57-9.83,14.17-7.82,15.55-27.28,13.67,13.03,9.8,14.52,13.65,5.9,28.29,15.4-7.56,16.78-9.47,30.21,2.86-6.79-19.95-.54-16.69,12.65-27.24Z"/>
      <path class="cls-5" d="M1095.94,1120.3c-17.81,4.61-17.17.65-27.29-11.72,2.1,19.23-3.42,16.19-17.56,22.44,14.64,5.78,19.36,6.94,13.65,24.35,6.34.21,6.82-9.75,13.12-11.38s10.52,3.51,16.12,3.59c-7.11-12.53-7.63-15.92,1.96-27.27Z"/>
      <path class="cls-5" d="M1232.47,1147.62c-7.15-7.26-19.35.72-11.72-25.39-12.59,11.89-13.77,15.27-29.21,3.9-1.6,5.41,6.2,12.35,5.5,16.29-1,5.63-11.92,6.89-11.36,12.96,4.42-.74,13.37-3.84,17.22-1.6,1.76,1.03,4.09,14.2,8.1,15.24.52-3.86,2.21-13.24,4.85-15.64,3.33-3.04,21.98-.34,16.62-5.77Z"/>
      <path class="cls-5" d="M1162.24,1151.53c-.77-.97-10.3-3.84-11.27-9.09-.71-3.85,5.08-11.71,4.49-16.26-12.12,10.25-16.37,9-28.28-.04,5.42,19.35,1.65,15.73-11.72,27.28,4.8.76,13.73-1.55,17.62.93,3.49,2.23,2.85,19.33,7.7,14.68s.68-18.61,20.51-13.63c1.68.22,1.19-3.59.96-3.87Z"/>
      <path class="cls-4" d="M1154.07,691.76c170.24-7.79,291.44,173.16,195.06,321.84-87.97,135.7-295.24,130.13-375.12-10.31-79.43-139.66,24.79-304.42,180.06-311.53ZM1156.01,709.33c-143.46,5.79-238.72,154.71-166.41,284.21,73.19,131.06,266.3,135.39,345.86,8.35,85.14-135.93-25-298.81-179.46-292.57Z"/>
      <path class="cls-4" d="M1146.64,648.28c-8.21,14.82-15.83,11.63-3.89,29.23-2.19,1.77-13.07-5.9-16.64-5.77-6.07.21-7.87,10.14-14.56,9.68.75-5.2,3.54-10.83,1.62-16.24-2.16-6.1-14.41-4.07-13.34-11.04,18.32.09,18.58-2.02,19.53-19.51,10.15,12.47,7.59,19.78,27.27,13.66Z"/>
      <path class="cls-4" d="M1394.33,775.06c6.94,6.84-.75,22.74,23.42,13.65-7.25,12.79-14.79,13.91-3.89,29.23-14.77-6.38-17.39-8.83-29.23,3.92-1-4.64,1.52-15.9-.36-19.18-.74-1.29-12.72-4.13-13.3-8.11,3.4-1.74,16.02-1.26,17.31-2.21,1.98-1.47.81-22.48,6.05-17.31Z"/>
      <path class="cls-4" d="M1441.17,856.99c-11.8,10.36-15.21,9.28-14.62,27.27-10.38-11.72-13.4-9.57-26.33-3.9,6.07-14.05,3.26-17.89-7.81-27.27,4.34-1.75,14.96,2.56,17.56,1.09,3.65-2.07,5.19-14.57,9.72-16.7,1.84,15.85,3.77,22.19,21.48,19.51Z"/>
      <path class="cls-4" d="M1019.87,687.29c-.92,5.43-3.48,12.66-1.96,18.09.95,3.4,12.4,5.31,13.66,9.18-16.07,1.08-19.37.63-21.47,17.57-6.72.28-4.7-11.16-11.06-13.35-5.52-1.9-10.84,1.77-16.22,1.63,10.53-11.3,15.57-14.01,5.85-29.21,18.73,11.62,15.31,5.85,31.2-3.91Z"/>
      <path class="cls-4" d="M912.99,868.28c4.3,2.32,13.81-2.98,19.12-1.54-12.28,13.38-10.33,14.61-1.96,29.22-16.39-7.47-16.88-6.22-29.22,5.86,2.47-19.15-1.16-15.52-13.67-25.33,15.59-2.93,17.38-2.67,15.61-19.52,5.98-1.53,8.15,10.24,10.13,11.3Z"/>
      <path class="cls-4" d="M1429.46,903.79c-5.63,17.47-1.09,18.53,13.65,24.36-1.79,4.1-12.33,2.17-15.66,5.79-3.82,4.16.17,13.91-5.75,16.63-4.5-14.14-9.88-14.88-23.42-11.7,7.33-11.89,11.11-13.89,1.94-27.27,19.63,7.49,15.23.28,29.25-7.81Z"/>
      <path class="cls-4" d="M904.76,921.35c.95.77,4.02,10.46,9.1,11.35,4,.7,10.82-7.14,16.28-5.51-5.31,13.46-9.48,16.12,3.9,26.33-12.7,1.03-21.3-.85-23.42,14.61-6.33-1.91-2.51-14.24-6.26-17.13-1.94-1.5-11.89-1.83-15.17-2.38-1.3-6.54,10.1-5.28,12.7-9.73,2.96-5.08-.5-11.38-1.02-16.56-.21-1.71,3.6-1.22,3.9-.99Z"/>
      <path class="cls-4" d="M1333.89,708.72c-17.83-2.49-16.56,1.95-19.52,17.56-9.59-13.69-4.7-18.37-25.33-15.62,10.55-10.41,11.49-13.12,5.86-27.27,13.31,6.83,17.4,8.05,28.29-3.87-.29,5.44-2.52,12.87-.67,18.18,1.76,5.02,12.23,4.03,11.36,11.03Z"/>
      <path class="cls-4" d="M1260.04,667.53c.6.79,13.36,3.11,15.34,5.11-14.53,6.33-15.98,5.5-17.57,22.44-9.17-12.08-12.07-13.3-27.28-9.77,9.59-11.35,9.07-14.74,1.96-27.27,16.74,5.74,16.71,2.58,27.27-9.76.9,4-1.32,17.15.28,19.26Z"/>
      <path class="cls-4" d="M967.2,736.05c-3.37,18.52,4.9,15.8,15.61,25.32-20.61,2.65-13.48,4.45-15.59,18.6-1.52,10.19-7.12-7.93-11.76-9.84-4.44-1.83-10.83,3.22-15.55,2.96-2.34-2.3,7.9-10.47,7.45-14.26-.31-2.61-9.72-11-7.46-13.02,5.4-.8,10.71,3.22,16.13,1.64,6.93-2.02,4.2-12.02,11.15-11.39Z"/>
      <path class="cls-4" d="M944.1,1001.01c1.15,1.82,14.89,3.24,13.35,10.03-17.7-2.35-17.22,1.6-19.52,17.56-10.42-12.09-5.84-18.35-25.33-13.67,12.16-11.67,10.18-12.73,3.91-27.27,16.8,6.53,16.45,6.91,29.22-5.86,1.46,4.87-3.89,15.66-1.63,19.21Z"/>
      <path class="cls-4" d="M1419.71,968.15c-4.38,15.75-5.79,17.05,7.81,27.27-20.63-2.74-15.75,1.93-25.33,15.62-2.38-14.96-5.23-20.05-21.48-17.57,12.72-12.41,16.33-7.34,9.76-27.27,2.51-2.57,9.89,8.94,14.61,9.03,3.93.07,12.87-8.97,14.63-7.08Z"/>
      <path class="cls-4" d="M1329.97,1065.67c2.46,13,5.24,17.8,19.53,15.62-12.73,10.8-13.36,11.41-5.85,27.26-13.86-7.64-15.29-10.41-29.23.02,3.92-16.05,1.7-17.27-9.77-27.28,4.39-.63,12.06,1.4,15.67-.93,2.34-1.51,5.19-18.99,9.65-14.69Z"/>
      <path class="cls-4" d="M1162.24,1151.53c.23.29.71,4.09-.96,3.87-19.82-4.97-15.64,8.97-20.51,13.63s-4.22-12.46-7.7-14.68c-3.89-2.48-12.82-.17-17.62-.93,13.37-11.56,17.14-7.93,11.72-27.28,11.91,9.04,16.16,10.3,28.28.04.59,4.55-5.2,12.42-4.49,16.26.97,5.24,10.5,8.12,11.27,9.09Z"/>
      <path class="cls-4" d="M1232.47,1147.62c5.36,5.43-13.29,2.73-16.62,5.77-2.64,2.4-4.33,11.78-4.85,15.64-4.01-1.04-6.34-14.22-8.1-15.24-3.85-2.24-12.8.86-17.22,1.6-.57-6.07,10.35-7.32,11.36-12.96.7-3.94-7.09-10.88-5.5-16.29,15.44,11.37,16.63,7.99,29.21-3.9-7.63,26.1,4.56,18.13,11.72,25.39Z"/>
      <path class="cls-4" d="M1095.94,1120.3c-9.6,11.36-9.07,14.74-1.96,27.27-5.6-.07-10.13-5.14-16.12-3.59-6.3,1.63-6.78,11.59-13.12,11.38,5.71-17.41.99-18.57-13.65-24.35,14.14-6.25,19.66-3.21,17.56-22.44,10.11,12.38,9.48,16.34,27.29,11.72Z"/>
      <path class="cls-4" d="M1080.34,661.94c-9.95,15.22-7.5,13.45,1.95,27.26-17.81-4.6-17.17-.66-27.28,11.72,1-15.73,1.69-20.72-15.63-21.48-1.32-6.52,10.14-5.28,12.69-9.72,2.34-4.09.42-10.96.99-15.61,11.73,12.23,10.13,13.08,27.28,7.82Z"/>
      <path class="cls-4" d="M930.14,792.6c-.66,14.84,6.13,17.32,19.52,17.58-11.06,8.77-14.59,11.97-7.85,26.34-15.09-8.83-15.54-11.11-30.21.9-.59-4.54,5.2-12.42,4.49-16.26-1.08-5.81-11.79-6.81-11.28-12.94,3.66-.81,15.46,1.22,17.34-.22.73-.56,3.71-21.55,7.99-15.4Z"/>
      <path class="cls-4" d="M1378.75,730.2c-8.42,15.13-10.27,14.51,1.92,28.3-4.94.6-13.84-4.01-18.09-3.07-3.19.71-5.49,13.48-11.11,11.81,3.53-20.81-4.82-12.93-15.61-23.37,16.04-3.46,17.17-7.26,15.62-23.43,10.67,13.16,9.26,16.3,27.27,9.76Z"/>
      <path class="cls-4" d="M1296.84,1118.35c-13.2,10.55-19.44,7.29-12.65,27.24-13.42-12.33-14.81-10.41-30.21-2.86,8.62-14.63,7.14-18.49-5.9-28.29,19.47,1.88,17.45.5,27.28-13.67.49,15.52,6.4,19.14,21.48,17.57Z"/>
      <path class="cls-4" d="M975,1032.52c-1.55,15.4,0,18.55,15.61,19.51.38,6.65-11.52,4.93-13.44,11.07-1.28,4.08,2.73,9.71,1.73,14.25-12.09-6.51-13.66-14.86-28.29-3.94-.45-5.4,5.45-11.25,4.96-16.45-.53-5.57-8.32-6.89-7.85-12.75,19.71,5.72,14.57-4.35,27.28-11.7Z"/>
      <path class="cls-4" d="M1390.45,1030.57c1.96,5.77-5.82,8.4-5.57,12.32.31,4.84,8.99,9.24,8.53,14.92-4.2-2.15-12.85-5.05-17.21-3.6-5.39,1.79-4.46,12.28-11.09,11.44,1.55-15.4,0-18.55-15.62-19.51-4.71-3.93,13.44-7.75,14.7-9.65,3.38-5.14-1.93-14.71-1.03-15.67,6.67-.18,7.34,9.95,13.12,11.4,4.53,1.14,9.44-2.52,14.17-1.65Z"/>
      <path class="cls-4" d="M1017.9,1075.42c1.88,15.54,3.64,17.4,19.51,15.62.43,6.53-10.5,7.73-11.37,12.96-.36,2.14,4.65,12.02,5.48,15.34-15.2-7.67-15.75-12.25-30.21.9-1.22-3.42,5.25-16.55,4.83-17.35-.51-.95-15.26-6.33-13.57-11.86,3.66-.81,15.47,1.22,17.34-.22.73-.56,3.42-20.98,7.99-15.39Z"/>
      <path class="cls-4" d="M1193.56,650.12c1.07,1.05,14.2-.55,17.45.11.54,6.79-11.97,6.97-13.18,12.86-.54,2.61,2.03,12.28,3.4,15.44-13.75-8.63-14.73-11.76-29.19-1,5.48-16.43,3.67-17.45-7.82-29.24,4.78-.77,13.76,1.55,17.62-.93,3.32-2.13,2.79-12.98,7.71-14.68,2.12,2.89,3.38,16.82,4.02,17.44Z"/>
      <path class="cls-5" d="M1156.01,709.33c154.46-6.24,264.6,156.64,179.46,292.57-79.57,127.03-272.68,122.71-345.86-8.35-72.32-129.5,22.94-278.42,166.41-284.21ZM1174.89,788.7h-30.23c-.56,0-1.06-.35-1.25-.88l-11.22-31.02c-.41-1.14-2.01-1.18-2.48-.06l-11.92,28.37c-.19.46-.62.77-1.12.81l-30.9,2.52c-1.22.1-1.67,1.65-.7,2.39l23.93,18.2c.43.33.62.89.48,1.41l-8.82,31.96c-.33,1.21,1.02,2.17,2.05,1.45,6.52-4.58,22.22-18.16,27.38-18,4.14.13,20.96,14.61,26.56,17.21.87.41,1.86-.22,1.9-1.18.31-8.59-11.24-26.48-8.94-31.83,1.75-4.08,19.47-12.89,26.21-19.02.9-.82.3-2.31-.91-2.31ZM1302.39,842.39l-9.16-28.34c-.4-1.23-2.14-1.23-2.54,0l-9.16,28.34c-.18.55-.69.92-1.27.92h-35.03c-.66,0-1.21.49-1.32,1.13-.54,3.22,1.65,2.32,2.73,3.36,3.76,3.61,21.25,14.15,24.22,17.66.28.33.36.77.25,1.19l-8.47,31.81c-.31,1.18.99,2.13,2.02,1.46l26.61-17.37c.42-.28.97-.29,1.4-.03l26.66,15.65c1.04.61,2.28-.36,1.96-1.51l-8.49-30.06c-.1-.36-.06-.75.14-1.06,2.67-3.94,20.44-14.33,24.35-17.75,1.23-1.08,3.23-.15,2.71-3.35-.11-.65-.66-1.14-1.32-1.14h-35.02c-.58,0-1.09-.37-1.27-.92ZM1187.88,891.81c-.92-.6-3.26-14.31-5.96-18.36-.64-.96-2.14-.62-2.38.5-3.95,18.08-5.64,19.63-22.61,18.47-1.32-.09-1.95,1.58-.91,2.38,11.81,9.12,13.7,11.08,9.35,26.55-.34,1.22,1.05,2.19,2.07,1.44,11.51-8.53,14.41-7.66,27.07-1.02,1.04.55,2.24-.44,1.9-1.57-5.21-17.33-1.41-15.4,10.42-26.03.9-.81.35-2.33-.86-2.33-5.93-.03-15.82,1.44-18.08-.03ZM1077.53,921.33h-30.41c-.55,0-1.05-.34-1.24-.86l-11.22-29.27c-.43-1.11-1.98-1.15-2.46-.06l-12.95,29.39c-.21.48-.69.8-1.22.8h-31.37c-1.26,0-1.82,1.6-.82,2.38l25.13,19.77c.42.33.6.88.46,1.4l-8.3,30.15c-.33,1.21,1.02,2.17,2.05,1.45,6.51-4.58,22.22-18.16,27.38-18.01,3.2.1,20.6,13.62,26.4,16.85.9.5,1.99-.15,1.99-1.18,0-9.56-10.28-24.21-7.66-31.97,1.3-3.85,18.85-12.48,25.18-18.56.86-.83.26-2.28-.94-2.28ZM1177.94,1013h-32.17c-.66,0-1.21.49-1.32,1.14-.52,3.2,1.49,2.27,2.71,3.34,3.87,3.41,21.83,13.47,24.39,17.72.18.3.21.67.12,1.02l-8.68,30.79c-.33,1.16.94,2.13,1.97,1.51,6.66-4.06,23.38-17.69,25.93-18.06,5.58-.82,20.48,15.39,26.33,15.72.87.05,1.52-.81,1.31-1.66l-7.13-28.88c-.14-.56.09-1.14.58-1.45,7.79-4.84,19.43-11.09,25.83-16.71,1.23-1.08,3.24-.14,2.71-3.34-.11-.65-.66-1.14-1.32-1.14h-35.02c-.58,0-1.09-.37-1.27-.92l-9.33-28.8c-.38-1.18-2.03-1.24-2.5-.1l-11.91,28.99c-.21.5-.69.83-1.23.83Z"/>
      <path class="cls-4" d="M1302.69,843.31h37.06c1.2,4.55-1.1,3.29-2.46,4.48-4.1,3.6-23.53,14.89-24.63,18.3l9.54,33.76-30.23-17.75-30.21,19.72,9.51-35.73c-.85-2.63-20.59-14.43-24.62-18.29-1.19-1.14-3.74.06-2.47-4.49h37.06l10.73-33.18,10.73,33.18Z"/>
      <path class="cls-4" d="M1178.84,1013l13.63-33.17,10.75,33.17h37.06c1.2,4.56-1.11,3.29-2.46,4.48-6.62,5.82-18.87,12.32-26.64,17.22l7.64,30.95c-4,4.02-21.71-16.1-27.92-15.19-3.11.45-27.37,20.68-28.61,19.1l9.53-33.82c-1.15-3.86-20.59-14.7-24.64-18.26-1.35-1.19-3.66.07-2.46-4.48h34.13Z"/>
      <path class="cls-4" d="M1177.86,788.7c-3.76,5.99-26.28,16.71-28.27,21.33-2.44,5.67,10.68,25.43,8.75,33.27-1.78,2-23.48-17.31-28.26-17.46-6.42-.2-29.1,20.82-30.22,19.42l9.85-35.69-27.41-20.85,35.17-2.87,13.56-32.25,12.7,35.11h34.13Z"/>
      <path class="cls-4" d="M1080.34,921.33c-3.22,5.97-25.58,16.48-27.05,20.84-2.79,8.26,9.07,24.35,7.52,33.77-1.04,1.36-24.49-17.35-28.25-17.47-6.42-.2-29.12,20.84-30.22,19.42l9.33-33.86-28.85-22.7h36.08l14.6-33.15,12.7,33.15h34.13Z"/>
      <path class="cls-4" d="M1187.88,891.81c2.74,1.77,16.64-.74,21.19.29-14.28,13.7-18.65,9.34-11.71,31.17-16.37-8.62-17.91-9.84-33.13,1.96,6.21-20.7,4.27-20.72-11.72-33.14,21.62,1.67,22.83,1.38,27.33-19.52,3.53-2.75,6.89,18.49,8.05,19.24Z"/>
    </g>
  </g>
</svg>